<svg id="icon" xmlns="http://www.w3.org/2000/svg" viewBox="0 0 500 500"><path d="M490.51,156,262,3.62c-7.8-4.8-16.13-4.85-24,0L9.49,156A21.85,21.85,0,0,0,0,173.82V326.16A21.85,21.85,0,0,0,9.49,344L238,496.38c7.8,4.8,16.13,4.85,24,0L490.51,344A21.85,21.85,0,0,0,500,326.16V173.82A21.85,21.85,0,0,0,490.51,156Zm-219-94.31L439.73,173.82,364.68,224l-93.2-62.22Zm-43,0V161.82L135.32,224l-75-50.22ZM43,214l53.85,36L43,286V214ZM228.52,438.33,60.27,326.16l75-50.22,93.2,62.22ZM250,300.77,174.11,250,250,199.21,325.89,250Zm21.48,137.56V338.16l93.2-62.22,75.05,50.22ZM457,286l-53.85-36L457,214v72Z"/></svg>