<svg id="icon" xmlns="http://www.w3.org/2000/svg" viewBox="0 0 500 500"><path d="M250,2C113.25,2,2,113.25,2,250S113.25,498,250,498,498,386.75,498,250,386.75,2,250,2ZM414,116.37a210.77,210.77,0,0,1,47.83,132c-7-1.48-77-15.68-147.5-6.82-5.75-14-11.18-26.39-18.61-41.61C374,167.91,409.5,122.41,414,116.37Zm-23.55-24.5c-3.81,5.43-35.7,48.29-111,76.52a1130.88,1130.88,0,0,0-79-124A211.28,211.28,0,0,1,390.42,91.87ZM159.94,58.62a1351.11,1351.11,0,0,1,78.54,122.51c-99.09,26.31-186.36,25.93-195.84,25.81A212.63,212.63,0,0,1,159.94,58.62ZM38.17,250.32q0-3.24.11-6.47c9.27.19,111.92,1.51,217.7-30.15,6.07,11.87,11.86,23.92,17.18,36C196.56,271.23,127,333.18,92.63,392A211,211,0,0,1,38.17,250.32ZM120,417.44c22.12-45.24,82.17-103.63,167.58-132.76,29.74,77.28,42,142.05,45.18,160.64A211.4,211.4,0,0,1,120,417.44Zm248.38,8.49c-2.17-12.89-13.45-74.9-41.16-151,66.38-10.62,124.7,6.77,132,9.06A212.21,212.21,0,0,1,368.36,425.93Z"/></svg>