<svg id="icon" xmlns="http://www.w3.org/2000/svg" viewBox="0 0 500 500"><path d="M154.1,456.94,12.88,314.77c-17.17-17.18-17.17-54.39,0-70.61L215.17,40.91c16.22-16.22,52.48-16.22,68.71,0L487.12,244.16c17.17,17.17,17.17,54.39,0,70.61L345.9,456.94c-8.59,8.59-21.95,14.32-35.31,14.32H187.5C175.1,471.26,162.69,465.53,154.1,456.94ZM282.92,401.6c2.86-2.86,2.86-8.59,0-11.45l-27.67-27.67c-2.86-2.87-8.59-2.87-11.45,0l-27.67,27.67c-2.87,2.86-2.87,8.59,0,11.45l21.94,21H261l21.95-21Zm0-117.37c1.91-1.91,1.91-6.68,0-8.58l-29.58-29.59c-1.91-1.9-6.68-1.9-8.59,0l-85.88,85.88c-2.86,2.87-2.86,9.55,0,12.41l20,20h22.9l81.11-80.16Zm0-116.41c1.91-1.91,2.86-7.63,0-9.54l-28.63-28.63c-1.9-1.91-7.63-1.91-10.49,0L99.71,273.74c-1.9,1.9-2.86,7.63-.95,9.54l22.9,22h22L282.92,167.82Z"/></svg>