<svg id="icon" xmlns="http://www.w3.org/2000/svg" viewBox="0 0 500 500"><path d="M250,11.72C112.2,11.72,0,102.77,0,214.66,0,314.91,88.9,398.91,209.07,414.85c29.28,6.28,25.91,17,19.32,56.41-1.08,6.28-5.06,24.67,21.61,13.48S393.93,400,446.51,339.59C482.68,299.73,500,259.42,500,214.66,500,102.77,387.8,11.72,250,11.72ZM161.71,274.29a4.85,4.85,0,0,1-4.9,4.91h-70a5.22,5.22,0,0,1-3.38-1.38A4.52,4.52,0,0,1,82,274.44v-109a4.84,4.84,0,0,1,4.91-4.9h17.47a4.84,4.84,0,0,1,4.91,4.9v86.45H157a4.91,4.91,0,0,1,4.75,4.91Zm42.31.15a4.85,4.85,0,0,1-4.91,4.91H181.64a4.85,4.85,0,0,1-4.91-4.91v-109a4.84,4.84,0,0,1,4.91-4.9h17.47a4.94,4.94,0,0,1,4.91,4.9Zm120.78-109v109a4.85,4.85,0,0,1-4.9,4.91H302.42a5.07,5.07,0,0,1-4-2l-50-67.45V274.6a4.84,4.84,0,0,1-4.91,4.9H226.09a4.84,4.84,0,0,1-4.91-4.9v-109a4.85,4.85,0,0,1,4.91-4.9h17.32a4.61,4.61,0,0,1,4,2.15l50,67.44V165.61a4.85,4.85,0,0,1,4.91-4.9h17.47a4.85,4.85,0,0,1,5.06,4.75Zm96.87,17.48a4.84,4.84,0,0,1-4.9,4.9H369.1v18.39h47.67a4.84,4.84,0,0,1,4.9,4.91v17.63a4.83,4.83,0,0,1-4.9,4.9H369.1v18.39h47.67a4.84,4.84,0,0,1,4.9,4.91v17.47a4.84,4.84,0,0,1-4.9,4.91h-70a4.94,4.94,0,0,1-4.91-4.91v-109a4.94,4.94,0,0,1,4.91-4.9h70a5.15,5.15,0,0,1,4.9,4.9Z"/></svg>