<svg id="icon" xmlns="http://www.w3.org/2000/svg" viewBox="0 0 500 500"><path d="M298.1,198.2v71.1a3.16,3.16,0,0,1-3.2,3.2H283.5a3.31,3.31,0,0,1-2.6-1.3l-32.6-44v42.2a3.16,3.16,0,0,1-3.2,3.2H233.7a3.16,3.16,0,0,1-3.2-3.2V198.3a3.16,3.16,0,0,1,3.2-3.2H245a3,3,0,0,1,2.6,1.4l32.6,44V198.3a3.16,3.16,0,0,1,3.2-3.2h11.4a3.16,3.16,0,0,1,3.3,3.1Zm-82-3.2H204.7a3.16,3.16,0,0,0-3.2,3.2v71.1a3.16,3.16,0,0,0,3.2,3.2h11.4a3.16,3.16,0,0,0,3.2-3.2V198.2a3.22,3.22,0,0,0-3.2-3.2Zm-27.5,59.6H157.5V198.2a3.16,3.16,0,0,0-3.2-3.2H142.9a3.16,3.16,0,0,0-3.2,3.2v71.1a2.94,2.94,0,0,0,.9,2.2,3.37,3.37,0,0,0,2.2.9h45.7a3.16,3.16,0,0,0,3.2-3.2V257.8a3.2,3.2,0,0,0-3.1-3.2ZM358.1,195H312.4a3.22,3.22,0,0,0-3.2,3.2v71.1a3.22,3.22,0,0,0,3.2,3.2h45.7a3.16,3.16,0,0,0,3.2-3.2V257.9a3.16,3.16,0,0,0-3.2-3.2H327v-12h31.1a3.16,3.16,0,0,0,3.2-3.2V228a3.16,3.16,0,0,0-3.2-3.2H327v-12h31.1a3.16,3.16,0,0,0,3.2-3.2V198.2a3.36,3.36,0,0,0-3.2-3.2ZM474,107.7V393c-.1,44.8-36.8,81.1-81.7,81H107c-44.8-.1-81.1-36.9-81-81.7V107c.1-44.8,36.9-81.1,81.7-81H393C437.8,26.1,474.1,62.8,474,107.7ZM412.4,230.3c0-73-73.2-132.4-163.1-132.4S86.2,157.3,86.2,230.3c0,65.4,58,120.2,136.4,130.6,19.1,4.1,16.9,11.1,12.6,36.8-.7,4.1-3.3,16.1,14.1,8.8s93.9-55.3,128.2-94.7C401.1,285.8,412.4,259.5,412.4,230.3Z"/></svg>