<svg id="icon" xmlns="http://www.w3.org/2000/svg" viewBox="0 0 500 500"><path d="M250.55,2C110.52,2,2,104.35,2,242.58c0,72.3,29.71,134.78,78.07,177.94,8.35,7.51,6.63,11.86,8.05,58.23A19.91,19.91,0,0,0,116,496.32c52.91-23.3,53.59-25.14,62.56-22.7C331.85,515.81,498,417.71,498,242.58,498,104.35,390.59,2,250.55,2ZM399.79,187.14l-73,115.57a37.36,37.36,0,0,1-51.57,11.54c-.8-.5-1.58-1-2.34-1.61L214.8,269.17a15,15,0,0,0-18,0l-78.37,59.44c-10.46,7.93-24.16-4.6-17.11-15.67l73-115.57a37.37,37.37,0,0,1,51.56-11.55c.8.51,1.59,1.05,2.35,1.62l58.06,43.46a15,15,0,0,0,18,0l78.41-59.38c10.44-8,24.14,4.54,17.09,15.62Z"/></svg>