<svg id="icon" xmlns="http://www.w3.org/2000/svg" viewBox="0 0 500 500"><defs><style>.cls-1{fill-rule:evenodd;}</style></defs><path class="cls-1" d="M312.68,19.49,55.64,38.4C34.92,40.2,27.7,53.71,27.7,69.91V350.83c0,12.63,4.5,23.41,15.33,37.83L103.45,467c9.92,12.61,18.94,15.31,37.89,14.41l298.5-18c25.24-1.8,32.46-13.51,32.46-33.32V114c0-10.24-4.05-13.2-16-21.92l-2.05-1.49L372.2,33C352.37,18.6,344.24,16.78,312.68,19.49ZM148.11,108.85c-24.37,1.64-29.91,2-43.75-9.22L69.17,71.72c-3.59-3.61-1.79-8.11,7.22-9l247.11-18c20.74-1.8,31.56,5.41,39.68,11.71L405.57,87c1.8.9,6.3,6.29.89,6.29l-255.2,15.32ZM119.68,427.38V159.06c0-11.7,3.61-17.11,14.43-18l293.09-17.1c9.94-.9,14.44,5.41,14.44,17.1V407.56c0,11.71-1.81,21.63-18.05,22.52L143.13,446.3C126.9,447.19,119.68,441.8,119.68,427.38ZM396.56,173.45c1.8,8.12,0,16.22-8.13,17.13l-13.52,2.69V391.36c-11.73,6.3-22.55,9.9-31.56,9.9-14.44,0-18.05-4.5-28.86-18L226.09,244.6V378.76l28,6.3s0,16.2-22.56,16.2l-62.22,3.61c-1.8-3.61,0-12.6,6.31-14.41L191.83,386V208.58l-22.54-1.8c-1.81-8.11,2.69-19.81,15.33-20.72l66.74-4.49,92,140.47V197.77l-23.46-2.69c-1.8-9.91,5.41-17.11,14.43-18Z"/></svg>