<svg id="icon" xmlns="http://www.w3.org/2000/svg" viewBox="0 0 500 500"><path d="M371.28,378.93c-27,28.76-63.61,38.23-108,42.71-89.82,9.08-167.62-31-177-131.24-4-42.6,5.47-83.1,24.59-116.29L99.74,130.34c-1.79-7.61,5.21-14.84,12.62-13l38.45,9.33a151.18,151.18,0,0,1,81-34.13,148.42,148.42,0,0,1,74.39,11.72l36.14-21.86c6.8-4.12,15.42.53,16.07,8.67l2.08,51.56h0c27.79,29.34,46.72,69.42,51,114.92,2.41,25.71-.25,45.37-7.07,64.13-3.19,8.78-4.15,16.2,1.62,23.55,5.57,7.1,14.4,20.88,24.26,18.57,14.8-3.47,30.66-2.54,40.46,3.58A248.83,248.83,0,0,0,500,250C500,111.93,388.07,0,250,0S0,111.93,0,250,111.93,500,250,500a249.26,249.26,0,0,0,180.2-76.73,59,59,0,0,1-23.88-9.47C391.43,403.88,378.22,394.51,371.28,378.93Z"/><path d="M348.2,195.64l23.35-2.86-.33-4.21-24,2.93q-1.54-4.53-3.47-8.87l26.38-8.42-.83-5.28-28.06,9.72c-18.83-39.47-59.53-63.43-105.61-58.77a108.28,108.28,0,0,0-93.62,80.18l-27.45-4.16-.29,5.39,27,2.93a80.28,80.28,0,0,0-1.79,8.17L116,214.28l.21,4.21,23-1.83a85.46,85.46,0,0,0-.69,9.51l-21,8.59,1,5.2,20-9.36c.05,2.79.17,4.28.43,7.1,5.56,59.11,54.93,70.79,113.91,64.83s105.25-27.32,99.69-86.43c-.27-2.84-.67-4.31-1.15-7.07l21.66,4.71.5-4.77-22.71-4.32A84.87,84.87,0,0,0,348.2,195.64Z"/></svg>