<svg id="icon" xmlns="http://www.w3.org/2000/svg" viewBox="0 0 500 500"><path d="M450.75,293.85a217.64,217.64,0,0,0,4.7-43.8,205.22,205.22,0,0,0-205.3-205.3,211.38,211.38,0,0,0-43.8,4.7,111.85,111.85,0,0,0-157,156.8,217.64,217.64,0,0,0-4.7,43.8A205.22,205.22,0,0,0,250,455.35a211.38,211.38,0,0,0,43.8-4.7A111.86,111.86,0,0,0,474,362a110.31,110.31,0,0,0-23.2-68.1Zm-194.6,91.5c-65.6,0-120.5-29.2-120.5-65,0-16,9-30.6,29.5-30.6,31.2,0,34.1,44.9,88.1,44.9,25.7,0,42.3-11.4,42.3-26.3,0-18.7-16-21.6-42-28-62.5-15.4-117.8-22-117.8-87.2,0-59.2,58.6-81.1,109.1-81.1,55.1,0,110.8,21.9,110.8,55.4,0,16.9-11.4,31.8-30.3,31.8-28.3,0-29.2-33.5-75-33.5-25.7,0-42,7-42,22.5,0,19.8,20.8,21.8,69.1,33,41.4,9.3,90.7,26.8,90.7,77.6,0,59.1-57.1,86.5-112,86.5Z"/></svg>