<svg id="icon" xmlns="http://www.w3.org/2000/svg" viewBox="0 0 500 500"><path d="M120.12,309.1A47.06,47.06,0,1,1,73.06,262h47.06Zm23.72,0a47.06,47.06,0,0,1,94.12,0V426.94a47.06,47.06,0,1,1-94.12,0Zm47.06-189A47.06,47.06,0,1,1,238,73.06v47.06Zm0,23.72a47.06,47.06,0,0,1,0,94.12H73.06a47.06,47.06,0,0,1,0-94.12Zm189,47.06A47.06,47.06,0,1,1,426.94,238H379.88V190.9Zm-23.72,0a47.06,47.06,0,1,1-94.12,0V73.06a47.06,47.06,0,1,1,94.12,0V190.9Zm-47.06,189A47.06,47.06,0,1,1,262,426.94V379.88Zm0-23.72a47.06,47.06,0,0,1,0-94.12H426.94a47.06,47.06,0,1,1,0,94.12Z"/></svg>