<svg id="icon" xmlns="http://www.w3.org/2000/svg" viewBox="0 0 500 500"><path d="M429.2,26H70.8A44.85,44.85,0,0,0,26,70.8V429.2A44.85,44.85,0,0,0,70.8,474H429.2A44.85,44.85,0,0,0,474,429.2V70.8A44.85,44.85,0,0,0,429.2,26ZM403,174.8q-2.1,47.25-66,129.4Q271,390,225.3,390c-18.9,0-34.8-17.4-47.9-52.3-25.5-93.3-36.4-148-57.4-148-2.4,0-10.9,5.1-25.4,15.2L79.4,185.3c37.3-32.8,72.9-69.2,95.2-71.2q37.8-3.6,46.5,51.7c20.7,131.2,29.9,151,67.6,91.6q20.25-32.1,21.8-48.9c3.5-33.2-25.9-30.9-45.8-22.4q23.85-78.15,91.2-76,50,1.35,47.1,64.7Z"/></svg>