<svg id="icon" xmlns="http://www.w3.org/2000/svg" viewBox="0 0 500 500"><path d="M250,196.66A53.34,53.34,0,1,0,303.36,250,53.34,53.34,0,0,0,250,196.66Zm124.71-41a54,54,0,0,0-30.41-30.41c-21-8.29-71-6.43-94.3-6.43s-73.25-1.93-94.31,6.43a54,54,0,0,0-30.41,30.41c-8.28,21-6.43,71.05-6.43,94.33s-1.85,73.27,6.47,94.34a54,54,0,0,0,30.41,30.41c21,8.29,71,6.43,94.31,6.43s73.24,1.93,94.3-6.43a54,54,0,0,0,30.41-30.41c8.35-21,6.43-71.05,6.43-94.33s1.92-73.26-6.43-94.33ZM250,332a81.9,81.9,0,1,1,.2,0Zm85.38-148.3a19.14,19.14,0,1,1,19.13-19.15h0a19.1,19.1,0,0,1-19,19.18h-.07ZM426,26H74A48,48,0,0,0,26,74V426a48,48,0,0,0,48,48H426a48,48,0,0,0,48-48V74A48,48,0,0,0,426,26ZM408.88,316c-1.29,25.63-7.14,48.34-25.85,67s-41.4,24.63-67,25.85c-26.41,1.49-105.59,1.49-132,0-25.63-1.29-48.26-7.15-67-25.85S92.4,341.58,91.18,316c-1.49-26.42-1.49-105.61,0-132,1.29-25.63,7.07-48.34,25.85-67s41.47-24.56,67-25.78c26.41-1.49,105.59-1.49,132,0,25.63,1.29,48.33,7.15,67,25.85s24.63,41.42,25.85,67.05C410.37,210.44,410.37,289.56,408.88,316Z"/></svg>