<svg id="icon" xmlns="http://www.w3.org/2000/svg" viewBox="0 0 500 500"><path d="M329.91,381.93l-13.77,24-4.49,78.33C311.65,493,284,500,250,500s-61.63-7-61.63-15.72l-5.66-77.55-14.55-24.8C208.42,398.82,291.24,398.24,329.91,381.93ZM138.5,134.55l13.28,122.56c5.76-19.53,20.31-45.9,39.06-53.91,6.16-2.63,12.41-2.63,18.27.88,5.07,2.93,9.37,9.09,9.86,11.53,1.17,6.34-1.95,8.88-4.39,8.88-2.93,0-5.18-4.49-6.65-7.13-4-7.12-10.06-7.42-16.5-2.73-6.74,4.88-12.6,13.09-16.7,20.22A115.61,115.61,0,0,0,163,262.39c-1.47,5.47-2.83,14.26-.59,19.43,1,2.15,2.44,3.52,4.79,3.52,4.88,0,12-6.45,15.43-9.87,4.39-4.39,10.06-11.23,12.21-15.62l5.08-15.14c2.53-6.64,9.66-5.47,9.66,0,0,10-3.61,13.28-9.76,33.89-5.67,19-7.42,25.2-7.42,25.2-.69,2.73-3.32,7.32-6.16,7.32a2.8,2.8,0,0,1-2.54-1.17c-1-1.37-.88-5.18-.78-6.15.2-3.13,6.16-21.69,7.13-24.61-1.95,2.14-4,4.29-6.25,6.44-5.27,5-13.77,11.52-21,11.52a11.88,11.88,0,0,1-7.52-2.34l7.43,77.74c1.95,4.88,38.28,16.7,86.13,16.7s84.29-11.91,86.14-16.7l10.65-92.39c-5.57,5.08-12,11.33-19.14,14.46-5.28,2.24-17,3.71-17-5.57,0-5.08,8.89-14.46,14.07-21,1.36-1.66,4.59-5.76,4.59-7.91,0-2.83-5.86-2.15-11.43,2.44a56.46,56.46,0,0,0-8.5,9.48,78.46,78.46,0,0,0-8.3,15.13c-6.05,13.87-4,8.4-8.89,21.49s-4.1,11.52-5.07,13.67a9.53,9.53,0,0,1-3.91,4.4,5.89,5.89,0,0,1-6-.3c-.88-.58-1.27-1.85-1.27-3.61a11.88,11.88,0,0,1,.3-2.64c1.46-5.95,7.61-17.67,14.65-33.49,1.56-3.62,1-2.54.78-2.25-6.06,5.86-10.65,8.69-14.07,10.25-5.66,2.54-12.69,2.54-14.16-4-.1-.39-.1-.78-.19-1.17-11.53,9-23.74,11.42-19.54-7.91-4.49,8-12.3,14.55-21.87,14.55-4,0-6.94-1.37-8.4-5-2.25-5.37,1.27-14.55,4.49-23.25,1.66-4.39,3.91-9.66,6.94-15.82,1.56-3.32,4.1-5.27,7.42-4.39a7.58,7.58,0,0,1,1.56.68c2.54,1.76,1.56,4.4.29,7-3.71,7.33-6.93,12.7-9.08,20.32-.88,3.22-1.95,8.79,1.47,8.79a11.22,11.22,0,0,0,6.73-2.35c4.5-3.32,8.11-8.3,10.84-13.18a66.4,66.4,0,0,0,5.47-12,33.74,33.74,0,0,1,1.76-4.69c1.08-2.44,2.54-5,5.08-5a3.88,3.88,0,0,1,3.13,1.46c1.66,2.15,1.27,4.4.39,6.74-2,5.47-4.59,10.35-6.74,16.31-1.27,3.42-2.64,7.81-2.64,11.43,0,3.32,3.61,2.54,6.64,1.17a30.16,30.16,0,0,0,6.64-4.4c1.17-4.78.88-3.71,25.79-66.6,1.27-3.22,3.61-4.59,5.95-4.59a5.31,5.31,0,0,1,3.13,1.07c1.66,1.27,1.66,4,1,6.06-.68,1.85-.58,1.27-4.39,10.25-5.08,11.82-8.4,20.32-12.89,31.16-1.86,4.49-7.52,18.45-8.5,21.78-.58,2.14-1.27,5.66,1,5.66,5.27,0,18.85-12.79,22.56-16.6.19-.3.49-.39.88-.59.58-1.85,1.17-3.61,1.66-5.37,1.37-3.71,2.63-8,5.17-11a3.52,3.52,0,0,1,2.64-1.56c2.74,0,4.1,1.17,4.1,3.91a32.83,32.83,0,0,1-1.07,6c1.37-1.46,2.83-2.93,4.39-4.39,14.65-13.58,25.1-6.64,25.1.19,0,7.23-8.69,17.29-13.47,22.86-1.57,1.85-4.79,5.27-4.89,6.25,0,1.27.88,1.75,2.15,1.75,1.95,0,6.25-3.41,7.81-4.59,4.89-3.8,11.53-9.66,16.22-13.77l14.45-133.6c-29.79,16.7-193,16.8-223,.2Zm224.33-8.3c0,20.5-225.8,20.5-225.8,0,0-8.6,50.59-15.53,112.9-15.53,8.79,0,17.38.1,25.68.39l12.31-47.56,59.87-63c1.36-1.36,5.66-.19,9.67,3.42s6.44,7.72,5.17,9.08l-.1.1-56,59.09L296.81,112C335.77,114.53,362.83,119.9,362.83,126.25Zm-67.78,4.49c0-.78-.88-1.47-2.44-2.05l-.2.78c0,1.27-4.88,2.34-10.84,2.34s-10.84-1.07-10.84-2.34a.34.34,0,0,1,.1-.29l.19-.69c-1.75.59-2.93,1.37-2.93,2.25,0,2,6.06,3.61,13.38,3.61,7.52.1,13.58-1.56,13.58-3.61Z"/></svg>