<svg id="icon" xmlns="http://www.w3.org/2000/svg" viewBox="0 0 500 500"><path d="M71.47,145.4c-36.19,52-31.72,119.75-4,175.2.64,1.33,1.34,2.63,2,3.94L70.73,327c.25.49.53,1,.8,1.43.48.9,1,1.72,1.45,2.59l2.65,4.52,1.5,2.48,3.07,4.8,1.31,2c1.44,2.15,2.91,4.3,4.44,6.39l.87,1.18q2,2.71,4,5.37l1.53,1.95,3.73,4.6,1.44,1.71c1.7,2,3.45,4,5.2,5.95a3.24,3.24,0,0,1,.31.33c1.74,1.89,3.5,3.74,5.29,5.58l1.7,1.71,4.22,4.14,1.73,1.67c1.9,1.79,3.83,3.54,5.79,5.27l6.35,5.37,2.17,1.74,4.39,3.42,2.34,1.79,4.92,3.53,2.3,1.63c1.58,1.08,3.17,2.12,4.79,3.16l2.07,1.38q3.7,2.34,7.48,4.57l2.07,1.28,5.63,3.15c1,.55,2.07,1.07,3.1,1.6l4,2.08.93.45,1.67.79,6.36,2.94,1.35.61c2.45,1.07,4.93,2.09,7.43,3.08L193,434l7,2.6.9.31q3.88,1.33,7.8,2.55l1.89.57a65.57,65.57,0,0,0,8.06,2.27c175.12,31.93,226-105.24,226-105.24C401.86,392.71,326,407.39,254,391.05c-2.72-.62-5.37-1.46-8-2.25l-2-.6q-3.89-1.2-7.72-2.52l-1.07-.39q-3.4-1.21-6.8-2.52l-1.92-.76q-3.7-1.47-7.35-3.07l-1.47-.64-6.2-2.89-1.79-.86c-1.61-.77-3.2-1.62-4.8-2.56l-3.2-1.66c-1.94-1-3.83-2.12-5.75-3.22L194,366q-3.78-2.24-7.49-4.58c-.67-.43-1.34-.89-2-1.34l-5.32-3.54a20.11,20.11,0,0,1-1.71-1.2l-5-3.65L170.19,350l-4.54-3.55-2-1.63L158,340.07a8,8,0,0,0-.64-.51l-5.94-5.41-1.67-1.61-4.24-4.22-1.67-1.66c-1.79-1.83-3.52-3.67-5.11-5.55a3.45,3.45,0,0,1-.26-.28q-2.72-3-5.32-6.06l-1.28-1.67L128,308.37l-1.28-1.75-4.43-5.88C82.19,246.36,67.84,171.19,99.73,109.55m84.15-8c-26.19,37.69-24.77,88.24-4.35,128a166.69,166.69,0,0,0,11.59,19.33c3.92,5.63,8.27,12.32,13.47,16.83,1.9,2.09,3.87,4.09,5.89,6.1l1.53,1.54q2.94,2.85,6,5.57c.09.06.15.15.25.22,2.33,2,4.69,3.83,7.08,5.86l1.58,1.24q3.6,2.77,7.34,5.35l.22.16c1.1.76,2.23,1.47,3.35,2.21.54.35,1,.72,1.59,1.05,1.78,1.15,3.6,2.25,5.43,3.32l.77.45,4.81,2.56c.56.32,1.28.59,1.71.89L255.5,304c.17.09.35.16.52.23,2.3,1.15,4.64,2.24,7,3.26l1.54.64q2.85,1.22,5.75,2.33l2.46.9q2.63.94,5.28,1.82l2.39.77a62.77,62.77,0,0,0,7.64,2.21c135.2,22.41,166.42-81.84,166.42-81.84-28.13,40.54-82.61,59.85-140.77,44.76-2.57-.68-5.13-1.42-7.66-2.21-.77-.23-1.54-.49-2.3-.75l-5.37-1.84-2.56-.89c-1.93-.75-3.85-1.52-5.76-2.33l-1.56-.64q-3.57-1.54-7.06-3.27l-3.54-1.79-2-1.05q-2.26-1.23-4.48-2.52l-1.07-.6q-2.74-1.61-5.43-3.33c-.55-.34-1.08-.73-1.63-1.08l-3.52-2.33q-3.72-2.58-7.29-5.35l-1.66-1.28c-25.58-20.1-45.63-47.57-55.22-78.69-10.05-32.29-7.89-68.55,9.53-98m73.3-2.34c-15.43,22.83-17,50.93-6.24,76,11.29,26.64,34.44,47.53,61.46,57.55l3.35,1.28,1.48.46,4.82,1.28c74.66,14.42,94.89-38.31,100.3-46.08C425.84,184.85,396,191,359.46,182.1c-2.89-.7-6.06-1.75-8.85-2.73a107.46,107.46,0,0,1-28.94-15.61C288.94,138.94,268.61,91.45,290,52.88"/></svg>