<svg id="icon" xmlns="http://www.w3.org/2000/svg" viewBox="0 0 500 500"><path d="M473.78,123.73a4.6,4.6,0,0,0-.25-.61,7.52,7.52,0,0,0-.48-1.13,4.86,4.86,0,0,0-.48-.64,10.61,10.61,0,0,0-.65-.85c-.21-.19-.47-.36-.69-.54a8.3,8.3,0,0,0-.82-.61L383.7,69.43a7.2,7.2,0,0,0-7.21,0l-86.73,49.95h0a6.73,6.73,0,0,0-.79.62,7.38,7.38,0,0,0-.71.54,7.81,7.81,0,0,0-.65.84,6.28,6.28,0,0,0-.48.64,9.14,9.14,0,0,0-.47,1.12c-.07.21-.19.4-.25.62a7,7,0,0,0-.25,1.87v94.81l-72.27,41.61V76.53a7,7,0,0,0-.25-1.88,6.57,6.57,0,0,0-.26-.61,7.32,7.32,0,0,0-.46-1.12c-.13-.23-.34-.42-.49-.65a7.53,7.53,0,0,0-.65-.84,5.94,5.94,0,0,0-.7-.54,9.36,9.36,0,0,0-.79-.62h0L123.54,20.35a7.18,7.18,0,0,0-7.2,0L29.61,70.27h0a8,8,0,0,0-.79.62,6.4,6.4,0,0,0-.71.55,7.33,7.33,0,0,0-.64.83c-.16.23-.36.42-.5.65A7.32,7.32,0,0,0,26.51,74c-.09.19-.18.4-.26.6A7.61,7.61,0,0,0,26,76.53v297a7.21,7.21,0,0,0,3.6,6.26L203,479.65a7.26,7.26,0,0,0,1.19.49,5.65,5.65,0,0,0,.57.23,7,7,0,0,0,3.7,0c.18,0,.33-.14.49-.19a7.8,7.8,0,0,0,1.26-.53L383.7,379.8a7.21,7.21,0,0,0,3.6-6.26V278.72l83.1-47.84a7.22,7.22,0,0,0,3.6-6.31v-99A8,8,0,0,0,473.78,123.73ZM119.93,35h0l72.24,41.57-72.25,41.61L47.69,76.53ZM199.43,89V270.36l-41.92,24.13L127.17,312V130.64l41.91-24.13Zm0,371.85-159-91.49V89L70.8,106.5l41.91,24.14V324.48a5.27,5.27,0,0,0,.1.81,7.65,7.65,0,0,0,.15,1.07h0a4.79,4.79,0,0,0,.34.81,5.92,5.92,0,0,0,.38.9h0c.17.24.35.48.54.7a7.34,7.34,0,0,0,.59.76h0c.21.2.47.34.7.52a7.47,7.47,0,0,0,.77.59h0l83.05,47Zm7.21-95.64-72.12-40.83,75.75-43.61,83.11-47.84,72.18,41.56-53,30.23Zm166.22,4.12-159,91.57V377.74l117.76-67.2L372.86,287Zm0-107.32L342.51,244.6,300.6,220.46V138.11L331,155.58l41.91,24.15Zm7.21-94.84-72.25-41.59L380.07,84l72.23,41.58ZM387.28,262V179.73l42-24.15,30.34-17.47v82.33h0Z"/></svg>