<svg id="icon" xmlns="http://www.w3.org/2000/svg" viewBox="0 0 500 500"><path d="M249.9,500a38.92,38.92,0,0,1-19.25-5.16l-61.21-36.21c-9.13-5.16-4.67-6.95-1.69-7.94,12.2-4.27,14.68-5.16,27.68-12.6a4.48,4.48,0,0,1,4.57.4l47,27.88a5.76,5.76,0,0,0,5.66,0L435.93,360.6a5.87,5.87,0,0,0,2.78-5V144.11a5.91,5.91,0,0,0-2.88-5.06L252.68,33.39a5.71,5.71,0,0,0-5.66,0L64,139.15a5.79,5.79,0,0,0-2.88,5.06V355.64A5.47,5.47,0,0,0,64,360.5l50.2,29c27.29,13.6,44-2.38,44-18.55V162.17a5.25,5.25,0,0,1,5.35-5.26H186.7a5.31,5.31,0,0,1,5.36,5.26V371c0,36.31-19.85,57.15-54.27,57.15-10.62,0-18.95,0-42.17-11.51L47.6,389a38.59,38.59,0,0,1-19.25-33.44V144.11A38.68,38.68,0,0,1,47.6,110.68L230.65,4.91a40.17,40.17,0,0,1,38.5,0L452.4,110.77a38.59,38.59,0,0,1,19.25,33.44V355.64a38.83,38.83,0,0,1-19.25,33.44L269.15,494.84A38.64,38.64,0,0,1,249.9,500ZM397.83,291.55c0-39.59-26.79-50.11-83-57.55-57-7.54-62.71-11.41-62.71-24.7,0-11,4.87-25.7,47-25.7,37.6,0,51.5,8.14,57.25,33.53a5.31,5.31,0,0,0,5.16,4.17h23.81a5.17,5.17,0,0,0,3.87-1.68,5.54,5.54,0,0,0,1.39-4.07c-3.67-43.76-32.74-64.1-91.48-64.1-52.28,0-83.44,22-83.44,59,0,40.08,31.06,51.19,81.16,56.15,60,5.86,64.69,14.69,64.69,26.49,0,20.44-16.47,29.17-55.07,29.17-48.51,0-59.13-12.2-62.7-36.31a5.25,5.25,0,0,0-5.26-4.46H214.78a5.23,5.23,0,0,0-5.26,5.25c0,30.86,16.77,67.67,97,67.67,57.95-.1,91.28-23,91.28-62.9Z"/></svg>