<svg id="icon" xmlns="http://www.w3.org/2000/svg" viewBox="0 0 500 500"><path d="M465.79,194.49c-7.7-30.9-22.3-54.2-53.4-54.2h-40.1v47.4c0,36.8-31.2,67.8-66.8,67.8H198.69c-29.2,0-53.4,25-53.4,54.3v101.8c0,29,25.2,46,53.4,54.3,33.8,9.9,66.3,11.7,106.8,0,26.9-7.8,53.4-23.5,53.4-54.3v-40.7H252.19v-13.6h160.2c31.1,0,42.6-21.7,53.4-54.2,11.2-33.5,10.7-65.7,0-108.6ZM312.19,398a20.35,20.35,0,1,1-20.1,20.3A20.21,20.21,0,0,1,312.19,398Zm-118.4-155.9h106.8c29.7,0,53.4-24.5,53.4-54.3V85.89c0-29-24.4-50.7-53.4-55.6-35.8-5.9-74.7-5.6-106.8.1-45.2,8-53.4,24.7-53.4,55.6v40.7h106.9v13.6h-147c-31.1,0-58.3,18.7-66.8,54.2-9.8,40.7-10.2,66.1,0,108.6,7.6,31.6,25.7,54.2,56.8,54.2H127v-48.8c0-35.3,30.5-66.4,66.8-66.4Zm-6.7-142.6a20.35,20.35,0,1,1,20.1-20.3A20.21,20.21,0,0,1,187.09,99.49Z"/></svg>