<svg id="icon" xmlns="http://www.w3.org/2000/svg" viewBox="0 0 500 500"><path d="M77.06,335.28c13-15.51,14.49-31.53,4.45-61.28-6.36-18.82-16.91-33.32-9.16-45,8.27-12.46,25.82-.38,11.19,16.27l2.93,2c17.54,2,26.19-22,13.09-28.87C65,200.38,34.72,235.09,48.07,275.27c5.72,17,13.73,35.09,7.25,49.46-5.6,12.33-16.4,19.58-23.65,19.83C16.54,345.33,26.58,310.61,44,302c1.53-.76,3.69-1.78,1.65-4.32-21.48-2.42-34.07,7.5-41.32,21.36-21.1,40.3,40.05,55.18,72.73,16.27Zm377.62-118.5c5,12.21,12.46,24.29,8,35-3.69,9.15-8.52,13-13.86,13.85-7.5,1.28-5.46-22.25,7.38-29.24,1.14-.63,2.79-3.69,1.27-5.47-16.28-.89-25.43,6.87-30.39,17.17-14.37,30.13,32.55,38.4,55.56,8.77,9.16-11.82,9.54-23.52.77-44.75-5.6-13.48-14.12-23.53-8.78-32.43,5.73-9.4,19.46-1.27,9.16,11.32l2.29,1.27c13.35.76,18.82-17,8.64-21.49-26.82-11.44-51.87,17.42-40.05,46ZM284.82,184.61c-9.29-7.37-35.35,5-42.73,23.27-9.28,23.27-23,57.22-36.49,72.09-14.24,15.64-15.64,3.56-14.24-5.46,3.31-21.24,24-70.44,35.35-84.3-4.2-6.23-31.66-5.34-50.73,24.28-7.12,11.19-23.4,48.44-41.45,77.81-3.94,6.36-8.9,1.91-5.09-13,4.33-17.17,17-64.34,33.44-101.47,43-8.51,88.62-14.49,123.59-14.62,4.7-1.27,7.88-5.46,0-5.72-30.14-1-75.4,2.54-117.74,7.88,8.14-16.27,16.91-29.24,25.81-34.71-9.66-6.1-29.24-3.68-40.43,12.85a218.37,218.37,0,0,0-14.62,25.93c-31,4.83-57.6,10.3-71.08,15.39-14,5.34-12.46,22.25-3.94,19.07,17.68-6.61,41.58-13.48,68.15-19.58-16.91,38.14-30.13,83.15-33.31,101.46-7.88,44.5,19.71,44.25,33.19,26.7,14.62-19.2,45.13-86.71,49.84-93.83,1.39-2.42,3.3-1.15,2.29,1-34.08,68-31.16,94.34-3.57,88.49,12.47-2.67,33.95-24,39.55-35.09,1.14-2.67,3.56-2.42,3-1.27C202,327.91,174.58,373.3,156.14,387.54c-16.78,12.84-29.24-15,30.14-54.93,8.77-6,4.7-14.11-5.22-11.32C150.42,326.13,62.69,354,24.17,380.67c-2.93,2-5.6,3.69-5.47,7.88.13,2.42,4.32,1.53,6.36.26,49.84-29.88,90.65-41.58,137.44-51.37a2.83,2.83,0,0,0,2,.13c2.16-.51,2,.63.63,1.52a78.5,78.5,0,0,1-7.12,3.69c-31.53,12.34-50.6,39.54-43.86,53.4,5.72,11.95,36.61,7.63,51.24-.25,35.85-19.45,61.92-57.6,79.72-110.24,15.51-46.66,35.09-99.55,39.67-101.08ZM493.21,292.3c-58.36-7.62-184.24,2.55-239.8,17.3-16.53,4.32-11.95,13.09-3.56,11.44.13,0,3.69-.89,3.82-.89,45.64-8.9,156.38-16.66,221-4.32,7.76,1.4,31-21.87,18.57-23.53Zm-192.12-6.86c16.27-8.14,40.43-58.49,56.32-86.08,1.15-2,3.18-.38,2,1-40.18,69.17-23.14,77.18-7.25,76.16,21.24-1.27,40.82-31.79,45.14-38.65,1.78-2.67,2.8-.51,1.78,1.4-1,3.17-4.71,8.77-8.14,16.4-4.83,10.8.26,15,4.45,16.91,6.61,3.18,24.67,1.14,27.47-9.92-18.06-.38,25.17-85.57,29.62-90.78-12.08-7-30.77.63-39.29,17.42-18.18,36-33.44,65-43,65.48-18.57,1,21.36-80.23,27.84-82.77-3.94-5.73-29.24-3.31-43.35,18.56-5.09,7.88-36.11,62.81-43.74,71.84-13.48,16-14.5,2.29-10.68-13.74a187.8,187.8,0,0,1,6.23-20.21c8.9-20.09,18.43-26.45,24.28-32.93,39.29-43.61,61.79-79,52.89-92.82-7.88-12.33-34.2-6.86-51.11,18.57C301.47,168,272.74,231.91,269.05,261.15s17.67,31.41,32,24.29Zm16.53-85.57c1.4-3.18,2.29-4.07,4.7-9.41,14-30.77,31.54-63.19,43.61-78.32,7.51-7.88,18.06,2.8-1,32a294.32,294.32,0,0,1-37.76,47.17v.13c-3.57,3.94-6.74,7.25-8.14,9.15-1,1.27-2.16,1-1.4-.76Z"/></svg>