<svg id="icon" xmlns="http://www.w3.org/2000/svg" viewBox="0 0 500 500"><path d="M62.05,203.82q8.52,0,13.76,2.33c3.5,1.55,5.24,3.49,5.24,5.82a26.91,26.91,0,0,1-2.14,9.69,74.7,74.7,0,0,1-4.07,8.92,1.54,1.54,0,0,1-1.94.2,2.17,2.17,0,0,1-1.16-2.13,20.33,20.33,0,0,0,1.16-7.76A13.45,13.45,0,0,0,70,212a9.77,9.77,0,0,0-7.94-3.49,14.45,14.45,0,0,0-10.67,4.07q-4.07,4.06-4.07,11.44a23,23,0,0,0,3.29,11.83Q54,241.61,58,247.07a110.85,110.85,0,0,1,7.57,12A30,30,0,0,1,69,273.63q0,14-11.25,21.71T28.31,303.1q-13.18,0-20.75-4.26C2.52,296,0,292.9,0,289.53a11.91,11.91,0,0,1,1.16-4.27,44.36,44.36,0,0,1,3.11-5.82c1.33-2.12,2.76-4.19,4.26-6.2a23.35,23.35,0,0,1,5-5,1.45,1.45,0,0,1,2.14.39,1.78,1.78,0,0,1,.19,2.32,17.08,17.08,0,0,0-3.49,4.85,16.55,16.55,0,0,0-1.16,6.79A15.12,15.12,0,0,0,15.9,294a16.65,16.65,0,0,0,12,4.47q10.08,0,15.71-5.63a18.71,18.71,0,0,0,5.62-13.77A29.68,29.68,0,0,0,46,265.29q-3.3-6.37-7.18-12.41t-7.17-12.22a27.71,27.71,0,0,1-3.3-13.19q0-10.07,8.53-16.86t25.21-6.79Zm105.86,2c1.29.51,1.81,1.23,1.56,2.13S168,209.52,166,210c-3.88,0-8.33.14-13.37.39s-10.42.65-16.1,1.16a338.88,338.88,0,0,0-12.8,37q-5,18-5,29.28,0,13.17,10.08,13.18t22.5-17.45a1.65,1.65,0,0,1,2.13,0c.64.52.84,1.42.58,2.72a70.34,70.34,0,0,1-16.67,18.81q-10.09,7.95-19.78,7.94c-6.73,0-11.7-1.6-14.93-4.84s-4.85-7.69-4.85-13.39q0-11.24,5.43-31a340.74,340.74,0,0,1,14-40.33,175.4,175.4,0,0,0-18.61,3.11c-1.3-.25-1.62-.91-1-1.94a12.17,12.17,0,0,1,3.49-3.3,28.59,28.59,0,0,1,6-3.1,18.07,18.07,0,0,1,6.59-1.36h3.1a12.66,12.66,0,0,0,3.1-.39q4.94-11,10.47-21.71,5.43-10.49,10.86-19a21.69,21.69,0,0,1,6.4-4.85,46.07,46.07,0,0,1,7.95-3.29,31.32,31.32,0,0,1,6.4-1.36c1.68-.13,2.39.33,2.14,1.36a252,252,0,0,0-13,22.49q-6.57,12.77-12.21,26,7.36-.37,14.93-.38Z"/><path d="M403.19,11.74a14.92,14.92,0,0,1,9.51,2.91,14.62,14.62,0,0,1,5,7.75,26.05,26.05,0,0,1,.38,11.06,36.71,36.71,0,0,1-4.46,12.41c-.51.51-1.16.51-1.93,0a3.71,3.71,0,0,1-1.55-1.94,7.64,7.64,0,0,0-3.3-7.76q-4.08-3.11-12.6-3.1-15.91,0-32,11.83T331.07,76.11a292.73,292.73,0,0,0-28.31,44.6,422.44,422.44,0,0,0-22.89,52,401.22,401.22,0,0,0-15.31,53.12q-5.62,26.38-5.62,48.1,0,11.63,6.59,11.63,4.65,0,9.11-3.88A76.89,76.89,0,0,0,284.92,270a1.54,1.54,0,0,1,2.13.2,2.52,2.52,0,0,1,.59,2.52,77.24,77.24,0,0,1-18.23,19.39q-10.47,7.75-19,7.75-7.36,0-10.27-4.27a18.81,18.81,0,0,1-2.91-10.85q0-18.22,7.76-45.56a484.16,484.16,0,0,1,20.75-57.79,614.14,614.14,0,0,1,30-60.69,477.06,477.06,0,0,1,35.49-54.48q18.41-24.24,37-39.37t34.9-15.12ZM58.88,488.26a15,15,0,0,1-9.51-2.9,14.68,14.68,0,0,1-5-7.76A26,26,0,0,1,44,466.55a37,37,0,0,1,4.45-12.41,1.39,1.39,0,0,1,1.94,0,3.63,3.63,0,0,1,1.55,1.94,7.65,7.65,0,0,0,3.3,7.75c2.71,2.07,6.92,3.1,12.6,3.1q15.92,0,32-11.83T131,423.89a293.79,293.79,0,0,0,28.31-44.6,422.85,422.85,0,0,0,22.87-52,399.91,399.91,0,0,0,15.32-53.13q5.63-26.38,5.62-48.09,0-11.64-6.59-11.63c-3.1,0-6.14,1.28-9.11,3.87A76.89,76.89,0,0,0,177.15,230a1.53,1.53,0,0,1-2.13-.2,2.51,2.51,0,0,1-.58-2.52,76.88,76.88,0,0,1,18.23-19.39q10.46-7.75,19-7.75c4.91,0,8.33,1.41,10.27,4.26a18.87,18.87,0,0,1,2.91,10.86q0,18.23-7.76,45.57a483.9,483.9,0,0,1-20.74,57.78,614.25,614.25,0,0,1-30.06,60.69,478.39,478.39,0,0,1-35.48,54.48q-18.42,24.24-37,39.36T58.88,488.26Z"/><path d="M320.84,303.1q-16.29,0-16.29-17.84a87.9,87.9,0,0,1,1.36-14.34,110.42,110.42,0,0,1,4.27-16.87q2.91-8.73,6.78-17.65a108.87,108.87,0,0,1,9.31-17.06q-4.18,2.66-8.14,5.62a65.59,65.59,0,0,0-7,6c-.78.53-1.49.33-2.14-.58a2.06,2.06,0,0,1-.19-2.52q6.58-7,18.81-14.35a146.4,146.4,0,0,1,23.46-11.63,4,4,0,0,1,2.91,1,2,2,0,0,1,.19,2.52,149,149,0,0,0-20,35.29q-7.56,19-7.56,36.84,0,11.25,7,11.24,5,0,12.41-6.78a126.78,126.78,0,0,0,15.52-17.84q8.13-11.06,16.48-25t15.32-28.32c.77-1.54,3-3.1,6.78-4.65a29.7,29.7,0,0,1,11.44-2.33q5.82,0,3.49,3.11-5,9.27-9.5,18.81A144.28,144.28,0,0,0,398.79,243a114.8,114.8,0,0,0-4.07,17.26,124.61,124.61,0,0,0-1.36,19.19q0,12.42,6.6,12.41t14.73-11.63a2,2,0,0,1,3.11,2.33q-6.6,10.08-14.55,15.32t-14.54,5.23q-16.29,0-16.29-19a115,115,0,0,1,7-39.17q-14.73,26.74-31,42.46T320.84,303.1ZM481,203.82c5.68,0,10.28.78,13.77,2.33S500,209.64,500,212a27.09,27.09,0,0,1-2.13,9.69,74.56,74.56,0,0,1-4.08,8.92,1.54,1.54,0,0,1-1.94.2,2.17,2.17,0,0,1-1.16-2.13,20.3,20.3,0,0,0,1.17-7.76A13.45,13.45,0,0,0,489,212a9.79,9.79,0,0,0-7.95-3.49,14.45,14.45,0,0,0-10.67,4.07q-4.06,4.08-4.07,11.44a23,23,0,0,0,3.3,11.83q3.4,5.79,7.37,11.25a110.77,110.77,0,0,1,7.56,12A29.84,29.84,0,0,1,488,273.63q0,14-11.24,21.71t-29.48,7.76q-13.18,0-20.75-4.26c-5-2.85-7.56-5.94-7.56-9.31a11.91,11.91,0,0,1,1.16-4.27,44.36,44.36,0,0,1,3.11-5.82q2-3.18,4.26-6.2a23.17,23.17,0,0,1,5-5,1.44,1.44,0,0,1,2.13.39,1.78,1.78,0,0,1,.19,2.32,17.08,17.08,0,0,0-3.49,4.85,16.55,16.55,0,0,0-1.16,6.79A15.12,15.12,0,0,0,434.85,294a16.65,16.65,0,0,0,12,4.47q10.08,0,15.71-5.63a18.75,18.75,0,0,0,5.62-13.77,29.68,29.68,0,0,0-3.29-13.76q-3.29-6.37-7.18-12.41t-7.17-12.22a27.71,27.71,0,0,1-3.3-13.19q0-10.07,8.53-16.86T481,203.82Z"/></svg>