<svg id="icon" xmlns="http://www.w3.org/2000/svg" viewBox="0 0 500 500"><path d="M474,150.09c0-4.5-.08-9-.2-13.52a196.08,196.08,0,0,0-2.58-29.42,100,100,0,0,0-9.22-28A94.11,94.11,0,0,0,420.82,38a99.17,99.17,0,0,0-28-9.23,196.11,196.11,0,0,0-29.43-2.59c-4.51-.11-9-.16-13.52-.2H150.12c-4.51,0-9,.09-13.52.2q-3.67.11-7.37.28a171.86,171.86,0,0,0-22.06,2.31A103.52,103.52,0,0,0,86,34.88Q82.5,36.34,79.15,38A95.15,95.15,0,0,0,60.76,50.32q-2.82,2.41-5.43,5A94.1,94.1,0,0,0,38,79.17a99.68,99.68,0,0,0-9.22,28,197.2,197.2,0,0,0-2.54,29.4c-.13,4.51-.18,9-.21,13.52V349.92c0,4.51.08,9,.21,13.51a196.1,196.1,0,0,0,2.58,29.43,99.26,99.26,0,0,0,9.22,28A94.38,94.38,0,0,0,79.15,462a99.43,99.43,0,0,0,28,9.2,193.52,193.52,0,0,0,29.43,2.59c4.5.12,9,.18,13.52.21H349.89c4.51,0,9-.08,13.52-.21a194.94,194.94,0,0,0,29.44-2.59,99.43,99.43,0,0,0,28-9.2A94.21,94.21,0,0,0,462,420.84a99,99,0,0,0,9.22-28,194.56,194.56,0,0,0,2.59-29.42c.12-4.5.17-9,.2-13.51V166.15C474,160.79,474,155.45,474,150.09Zm-69.88,241c-20-38.92-57.23-29.26-76.31-19.47-1.72,1-3.48,2-5.25,3l-.42.25c-39.5,21-92.53,22.55-145.85-.38A234.64,234.64,0,0,1,71,284.12a229.67,229.67,0,0,0,39.17,23.37c56.36,26.4,113,24.49,153,0-57-43.85-104.6-101-141.09-147.22a197.28,197.28,0,0,1-18.78-25.9c43.7,40,112.7,90.22,137.48,104.12C188.19,183,141.87,114.55,144,116.75c82.79,83.42,159.18,130.59,159.18,130.59,2.88,1.58,5,2.86,6.73,4a126.58,126.58,0,0,0,4.16-12.47c13.22-48.33-1.66-103.58-35.31-149.2C355.59,135.76,401,223.34,382.38,297.43c-.44,1.73-.95,3.4-1.44,5.09,38.52,47.4,28,98.16,23.13,88.59Z"/></svg>