<svg id="icon" xmlns="http://www.w3.org/2000/svg" viewBox="0 0 500 500"><path d="M55.7,163.4l101.5,278a212.79,212.79,0,0,1-101.5-278Zm337.9,75.9c0-26.3-9.4-44.5-17.5-58.7-10.8-17.5-20.9-32.4-20.9-49.9,0-19.6,14.8-37.8,35.7-37.8.9,0,1.8.1,2.8.2a212.72,212.72,0,0,0-321.5,40c5,.2,9.7.3,13.7.3,22.2,0,56.7-2.7,56.7-2.7,11.5-.7,12.8,16.2,1.4,17.5,0,0-11.5,1.3-24.3,2l77.5,230.4L243.8,241l-33.1-90.8c-11.5-.7-22.3-2-22.3-2-11.5-.7-10.1-18.2,1.3-17.5,0,0,35.1,2.7,56,2.7,22.2,0,56.7-2.7,56.7-2.7,11.5-.7,12.8,16.2,1.4,17.5,0,0-11.5,1.3-24.3,2l76.9,228.7L377.6,308c9-29.4,16-50.5,16-68.7ZM253.7,268.6,189.9,454.1a212,212,0,0,0,130.7-3.4,15.93,15.93,0,0,1-1.5-2.9Zm183-120.7a165.74,165.74,0,0,1,1.4,21.9c0,21.6-4,45.8-16.2,76.2l-65,187.9a213,213,0,0,0,79.8-286ZM498,250c0,136.8-111.3,248-248,248S2,386.7,2,250,113.2,2,250,2,498,113.2,498,250Zm-11.4,0C486.6,119.5,380.4,13.4,250,13.4S13.4,119.5,13.4,250,119.6,486.6,250,486.6,486.6,380.5,486.6,250Z"/></svg>