<svg id="icon" xmlns="http://www.w3.org/2000/svg" viewBox="0 0 500 500"><path d="M140.94,208.61c-.56,17.69,8.29,25.53,8.5,30.51a6.38,6.38,0,0,1-3.2,4.9l-10,7a8.45,8.45,0,0,1-4.4,1.5c-.33,0-6.4,1.42-16-20a61.42,61.42,0,0,1-48.91,23c-12.72.69-47.19-7.22-45.41-43.92-1.25-29.9,26.61-48.48,55.41-46.91,5.55,0,16.87.29,36.71,4.9V157.38c2.1-20.67-11.48-36.71-35-34.3-1.87,0-15.15-.39-35.81,7.9-5.75,2.64-6.48,2.2-8.4,2.2-5.79,0-3.4-16.78-2.29-18.9,4.07-5,28-14.34,51.51-14.21a60.06,60.06,0,0,1,43.51,13.5A54.92,54.92,0,0,1,141,154.48v54.13Zm-67.51,25.3c25.34-.36,36.06-15.6,38.51-23.8,1.92-7.85,1.6-12.82,1.6-21.41a134.19,134.19,0,0,0-30.91-3.8C70.8,184,49.18,189.3,50,210.1,49.06,223.22,58.71,234.63,73.43,233.91Zm133.53,18c-6.14.56-9-3.8-9.91-8.1l-38.9-128.63a29.54,29.54,0,0,1-1.5-6.7,3.61,3.61,0,0,1,3-4.11c.19,0-1.66,0,17.39,0,6.85-.68,9.09,4.72,9.8,8.11l27.91,110,25.9-110c.42-2.52,2.3-8.65,10-8h13.41c1.69-.14,8.68-.39,9.9,8.1L300.08,224l28.81-111.43c.37-1.71,2.12-8.88,9.9-8.1H354.2c.66-.11,4.8-.64,4.1,6.7-.34,1.44,2.66-8.33-41.21,132.73-.9,4.31-3.77,8.67-9.91,8.1h-14.6c-8.54.9-9.77-7.54-9.9-8.4L256.77,136.49l-25.61,107c-.12.85-1.35,9.29-9.9,8.39H207Zm213.65,4.4c-4.59,0-26.5-.23-44.81-9.6a10,10,0,0,1-6.1-9.31V229c0-6.61,4.84-5.4,6.9-4.61,7.84,3.18,12.87,5.58,22.5,7.5,28.64,5.89,41.23-1.79,44.32-3.5,10.27-6.1,11.08-20.06,4.1-27.3-8.19-6.87-12.1-7.13-41.51-16.41-3.62-1-34.14-10.63-34.21-40.9-.48-22.06,19.57-43.89,54.31-43.71,9.9,0,36.27,3.22,43.42,12.2a9.54,9.54,0,0,1,1.5,5.5v7.9q0,5.2-3.81,5.2c-6-.67-16.71-8.72-38.41-8.4-5.38-.28-31.16.71-30,19.51-.34,14.81,20.79,20.37,23.2,21,28.48,8.57,38,10,49.31,23.11,13.39,17.38,6.17,37.73,3.4,43.31-14.91,29.29-53.45,26.91-54.11,26.89ZM452,338.24c-54.71,40.41-134.13,61.91-201.94,61.91A366.47,366.47,0,0,1,2.21,305.83c-5.1-4.6-.6-10.9,5.6-7.39a498,498,0,0,0,247.56,65.71,492.15,492.15,0,0,0,188.74-38.71c9.2-3.9,17,6.1,7.91,12.8Zm22.8-26c-7-9-46.31-4.2-63.91-2.1-5.31.6-6.2-4-1.4-7.4,31.3-22,82.72-15.7,88.62-8.3s-1.6,58.91-30.9,83.52c-4.5,3.81-8.81,1.8-6.81-3.2C467,358.15,481.82,321.24,474.82,312.23Z"/></svg>