<svg id="icon" xmlns="http://www.w3.org/2000/svg" viewBox="0 0 500 500"><path d="M303.88,272.1q-11-8.31-29-8.31H214.42V333.1h59.41a74.23,74.23,0,0,0,15.56-1.59,38.25,38.25,0,0,0,13.08-5.31,26.64,26.64,0,0,0,9-10.08q3.36-6.36,3.36-16.26Q314.85,280.4,303.88,272.1Z"/><path d="M295,218.88q9.56-7.06,9.55-23,0-8.84-3.18-14.5a23.51,23.51,0,0,0-8.49-8.84,35.84,35.84,0,0,0-12.2-4.42,81.35,81.35,0,0,0-14.32-1.24h-52v59h56.22Q285.51,226,295,218.88Z"/><path d="M404.73,41.51H95.27A53.76,53.76,0,0,0,41.51,95.27V404.73h0a53.76,53.76,0,0,0,53.76,53.76H404.73a53.76,53.76,0,0,0,53.76-53.76V95.27A53.76,53.76,0,0,0,404.73,41.51ZM362.94,336.1a64.51,64.51,0,0,1-20,22.81A88.56,88.56,0,0,1,314.32,372a129.11,129.11,0,0,1-33.07,4.25H158.91V123.76H277.72A156.62,156.62,0,0,1,310.6,127a70.84,70.84,0,0,1,25.46,10.43,48.47,48.47,0,0,1,16.44,19.27q5.83,12,5.84,29.7,0,19.1-8.66,31.83T324,239q23.34,6.72,34.83,23.51T370.36,303Q370.36,322.14,362.94,336.1Z"/></svg>