<svg id="icon" xmlns="http://www.w3.org/2000/svg" viewBox="0 0 500 500"><path d="M122.39,185.05c-1.07,9.76,5.07,18.64,5.07,18.64.69-7.32,2.15-12.49,3.91-16.2.39,10,3.12,22.93,12.49,33.28,6.74,7.42,34.75,22.74,53.58,5.95a72.77,72.77,0,0,1,2.93,8.3c2.83,10-2.63,24.69-2.63,24.69S212.47,243,211.3,228c10.54-.49,20.89-8.2,20.6-19,0,0-18.45,10.15-34.65-8.59-9.47-10.93-39.92-41-81.11-31a111.78,111.78,0,0,1,13.18,4h-.1c-4.1,1.95-6.34,6.93-6.83,11.71ZM150,183.29c19,10.74,36.5,25.08,43.82,36.11-5.56,3.22-21.18,10.15-37.09-1.66C146.69,210.33,147.18,192.17,150,183.29ZM288.7,228c-1.17,15.13,13.56,31.72,13.56,31.72s-5.46-14.64-2.63-24.69a80.38,80.38,0,0,1,2.93-8.3c18.83,16.89,46.84,1.47,53.48-5.95,9.37-10.35,12-23.23,12.49-33.28a46.05,46.05,0,0,1,3.91,16.2s6.24-8.88,5.07-18.64c-.58-4.88-2.83-9.76-6.83-11.52h-.1a83.51,83.51,0,0,1,13.18-4c-41.28-10-71.64,20.1-81.11,31-16.29,18.74-34.64,8.58-34.64,8.58-.2,10.64,10.15,18.45,20.69,18.84Zm61.19-44.7c2.93,8.88,3.32,27-6.83,34.55-15.91,11.81-31.43,4.88-37,1.56C313.39,208.28,330.86,194,349.89,183.29ZM218.72,408.74H190c-5.37,0-8,1.57-9.28,2.84q-2.77,2.93-.87,7.9c3.41,8.88,11.12,16.1,13.37,18.15a17.91,17.91,0,0,0,11.51,4.2,14.49,14.49,0,0,0,10.74-4.49A73.85,73.85,0,0,0,228.19,418c.58-1.47,1.27-4.4-.88-6.64-1.76-1.76-4.59-2.64-8.59-2.64ZM403.38,310c-2.35,17.47-12.69,33-24,42.66-3-22.16-3.61-54.17-3.61-60.91,0-14.34,9.27-23.91,11.9-25.47,2.44-1.46,5.27-2.93,8.1-4.49,17.57-9.37,39.43-21.08,39.43-42.65,0-15.81-9.07-22.64-15-27.13-.78-.59-1.46-1.08-2.14-1.66-2-1.66-3.61-2.93-4.2-4.3-4.29-9.56-3.51-33.38-1.66-36.69.59-.59,16.3-20.4,11.52-38.26a26.11,26.11,0,0,0-13.76-16.59c-5.18-2.64-11.62-4.1-19-4.4a38.06,38.06,0,0,0-.87-5.75,26.34,26.34,0,0,1-.88-7.91c.39-4.59.78-8.78,2.14-11,8.2-13,28.11-17.18,28.31-17.18l12-2.34-7.9-9.27c-.1-.2-16.89-17.08-45.19-17.08A76.84,76.84,0,0,0,355,23.33c-23.62,7.61-41.87,29.76-48.22,38.35q-4.53-1.45-9.37-2.63c-4.09-15.42,8.79-37.58,8.79-37.58s-13.28-2.93-32.89,14.84c-2.54-6.35-7.91-20-1.76-36.31-28.79,10.15-36,25.67-38.16,39.72-7.42-5.27-6.54-22.54-7-26.93-7.32.87-28.5,21.37-27.52,47.14-1.95.48-3.81,1.07-5.76,1.66-6.34-8.59-24.5-30.75-48.21-38.36a87.51,87.51,0,0,0-23.33-3.42c-28.3,0-45,16.89-45.19,17.08l-7.9,9.18,12,2.34c.2,0,20.11,4.2,28.31,17.18,1.36,2.14,1.75,6.44,2.14,11a29.93,29.93,0,0,1-.88,7.9,36.54,36.54,0,0,0-.87,5.76q-11.28.43-19,4.39a26.11,26.11,0,0,0-13.76,16.59C71.44,129,87.25,148.84,87.84,149.52c1.85,3.32,2.63,27.13-1.66,36.7-.59,1.37-2.15,2.63-4.2,4.29-.68.49-1.36,1.08-2.14,1.66-6,4.49-15,11.42-15,27.14,0,21.56,21.86,33.28,39.43,42.65,2.92,1.56,5.66,3,8.1,4.49,2.63,1.56,11.9,11.12,11.9,25.47,0,6.73-.58,38.75-3.61,60.9-11.32-9.66-21.66-25.28-24-42.75,0,0-28.5,22.06-20.1,69.1,5.07,28.79,22.64,45,45.87,53.39,8.59,18.64,28.69,44.6,65.68,48.41,14.06,11.51,33.58,19,62.08,19h.19c28.4,0,47.92-7.52,62.07-19,37-3.81,57.1-29.77,65.69-48.41,23.23-8.49,40.7-24.6,45.87-53.39,8-47.24-20.59-69.2-20.59-69.2ZM360.92,37.09a56.49,56.49,0,0,1,17.28-2.64,63.53,63.53,0,0,1,24.1,4.88,77.49,77.49,0,0,0-9.46,5.18,53.79,53.79,0,0,0-9-.79,48.34,48.34,0,0,0-28,8.69c-12,8.49-17.57,16.49-20.21,21.86a74.4,74.4,0,0,0-6.93-3.61c-1.56-.78-3-1.46-4.58-2.15,5.95-8.88,19.42-25.86,36.79-31.42Zm20.5,17.76c-.78,1-1.56,2-2.25,3.12-3.22,5.08-3.8,11.33-4.29,17.38-.49,6.24-1.08,12.2-4.3,16.59-4.1.78-7.9,1.66-11.22,2.63a66.33,66.33,0,0,0-10.25-10.93c1.37-4.68,5.37-15.71,13.18-22a33,33,0,0,1,19.13-6.83ZM107.07,44.51a57.47,57.47,0,0,0-9.47-5.18,63.55,63.55,0,0,1,24.11-4.88A56.9,56.9,0,0,1,139,37.09c17.37,5.66,30.84,22.64,36.8,31.33-1.57.68-3.13,1.36-4.69,2.14-2.44,1.18-4.78,2.44-6.93,3.62-2.54-5.28-8.1-13.38-20.2-21.87a48.65,48.65,0,0,0-28.11-8.68A63.56,63.56,0,0,0,107.07,44.51Zm43.62,39.13a58.8,58.8,0,0,0-10.24,10.93c-3.32-.87-7.13-1.85-11.23-2.63-3.22-4.3-3.71-10.25-4.2-16.5-.48-6-1.07-12.29-4.29-17.37A35.26,35.26,0,0,0,118.49,55a31.86,31.86,0,0,1,19,6.83C145.33,67.93,149.33,79,150.69,83.64ZM119.27,254c-2.64-1.56-5.47-3-8.2-4.49-14.54-7.8-29.48-15.91-29.48-29.76,0-10.84,4.2-14.25,8.69-17.77l.49-.39c.68-.58,1.36-1.17,2.14-1.75-.87,7-1.85,13-2.63,14.54,0,0,11.81-14.64,15.32-43.24,1.37-11.22-1.07-33.48-5-42a133,133,0,0,1-.29,14.06A11.4,11.4,0,0,0,99.06,141c-3.12-3.9-11.51-17.08-9.17-26,.88-3.42,3-5.86,6.54-7.61,3.71-1.86,8.59-2.83,14.74-2.83,12,0,25.27,3.61,32.11,5.85,24.49,7.81,54.07,30.16,62.56,36.8a1.69,1.69,0,0,0,.39.29l5.46,3.81-3.41-5.66c-.2-.3-18.65-30.65-51.93-45.39,2-2.83,7.23-7.9,21.09-14.74C198.32,75.35,222.82,70.17,250,70.17s51.63,5.18,72.52,15.42c13.86,6.74,19.13,11.91,21.08,14.74-33.18,14.74-51.63,45.09-51.83,45.39l-3.41,5.66,5.46-3.81a1.69,1.69,0,0,0,.39-.29c8.49-6.64,38.07-29.09,62.56-36.8,6.84-2.15,20.11-5.85,32.11-5.85,6.15,0,11,1,14.74,2.83a12.18,12.18,0,0,1,6.54,7.61c2.44,8.88-5.95,22.06-9.17,26a8.91,8.91,0,0,0-1.27,2.15,133,133,0,0,1-.29-14.06c-3.91,8.59-6.35,30.75-5,42,3.51,28.6,15.32,43.24,15.32,43.24-.78-1.56-1.76-7.52-2.63-14.54.68.58,1.46,1.17,2.14,1.75l.49.39c4.49,3.61,8.69,6.93,8.69,17.77,0,13.85-15,22-29.48,29.76-2.83,1.47-5.56,3-8.2,4.49-8.49,4.88-17.56,16.3-18.64,33.38-.88,14.25.88,48.7,3.32,74.08-12.1,4.68-26.06,6.25-38.75,6.64a117.65,117.65,0,0,1-5.36-12.79c-.69-1.95-19.13-49.87-25.77-60.71,5.37,38.07,17.08,71.93,22.94,87.45a80.52,80.52,0,0,0-11.42-.68H192.86a97.18,97.18,0,0,0-11.42.68c5.85-15.52,17.66-49.38,22.93-87.45-6.63,10.94-25.08,58.86-25.76,60.71a119.69,119.69,0,0,1-5.37,12.79c-12.69-.39-26.55-2-38.75-6.64,2.44-25.38,4.2-59.73,3.32-74.08-.88-17-10-28.5-18.54-33.38ZM96.53,395.18c-11.81-19.52-8.5-52.8-3.62-57.68,10.64,33.57,46.07,43.23,72.62,44.31-2.64,4.1-5.08,7.42-6.83,9.76l-1.37,1.36c-7,7.62-8.39,18.06-4,31-22.16-.1-45.19-9.56-56.8-28.79Zm44.6,42.45A175.86,175.86,0,0,0,159.28,440a138.68,138.68,0,0,0,12,22.54A67.92,67.92,0,0,1,141.13,437.63ZM250,486.53c-59.14-.1-76.42-44.7-82.86-63.15q-5.42-15.36.88-22.54c2.83-3.22,9.27-7,24-7h116c14.73,0,21.27,3.81,24,7,4.1,4.68,4.4,12.3.88,22.54C326.37,441.73,309.1,486.43,250,486.53Zm78.67-24a139.41,139.41,0,0,0,12-22.54,175.5,175.5,0,0,0,18.15-2.35A68,68,0,0,1,328.62,462.52Zm74.76-67.34c-11.71,19.23-34.75,28.6-56.71,29,4.39-13,3-23.53-4-31a16.76,16.76,0,0,0-1.37-1.46c-1.75-2.35-4.19-5.67-6.83-9.76,26.55-1.18,62-10.74,72.62-44.31,4.88,4.88,8.19,38.16-3.71,57.58ZM249.85,183.49h.2c12.39-.1,26.55-17.38,26.55-17.38-9.67,5.86-18.35,7.91-26.65,8.1-8.29-.19-17-2.24-26.64-8.1,0,0,14.15,17.18,26.54,17.38Zm60.22,225.16H281.38c-4.1,0-7,.88-8.69,2.63-2.15,2.25-1.46,5.08-.88,6.54a69.74,69.74,0,0,0,12.69,18.84,14.41,14.41,0,0,0,10.74,4.39,18.17,18.17,0,0,0,11.51-4.1c2.25-1.95,10-9,13.37-17.66,1.27-3.23,1-5.86-.87-7.71-1.27-1.27-3.91-2.84-9.18-2.93Z"/></svg>