<svg id="icon" xmlns="http://www.w3.org/2000/svg" viewBox="0 0 500 500"><path d="M334,305.56c9.57-6.54,22.86-12.2,22.86-12.2s-37.8,6.83-75.39,10c-46,3.8-95.41,4.59-120.22,1.27-58.69-7.82,32.23-29.4,32.23-29.4s-35.25-2.34-78.71,18.56C63.52,318.55,241.74,329.88,334,305.56Zm-83.39-31.34c-18.56-41.7-81.15-78.32,0-142.39C351.86,52,299.94,0,299.94,0c21,82.52-73.82,107.52-108.1,158.79C168.5,193.85,203.26,231.44,250.63,274.22ZM362.54,102.15c.1,0-171.09,42.77-89.35,136.91,24.12,27.73-6.35,52.73-6.35,52.73s61.23-31.64,33.1-71.19C273.67,183.69,253.56,165.33,362.54,102.15Zm-6,264.15a11.76,11.76,0,0,1-1.95,2.54c125.29-32.91,79.2-116.11,19.34-95a16.91,16.91,0,0,0-8,6.16,67.69,67.69,0,0,1,10.74-2.93c30.27-6.35,73.73,40.52-20.12,89.25Zm46.06,60.84s14.16,11.62-15.53,20.71c-56.54,17.09-235.15,22.26-284.76.68C84.48,440.81,118,430,128.52,427.73c10.94-2.34,17.28-2,17.28-2C126,411.81,17.58,453.22,90.73,465,290.18,497.45,454.39,450.48,402.64,427.14ZM184.32,386.71C107.46,408.2,231.1,452.53,329,410.64a181.4,181.4,0,0,1-27.54-13.48c-43.65,8.3-63.87,8.89-103.52,4.4C165.18,397.85,184.32,386.71,184.32,386.71ZM359.9,481.63c-76.85,14.46-171.67,12.8-227.83,3.52,0-.1,11.53,9.47,70.71,13.28,90,5.76,228.31-3.22,231.54-45.8,0,0-6.25,16.11-74.42,29ZM317.33,344.72c-57.82,11.13-91.31,10.84-133.6,6.45-32.71-3.42-11.32-19.24-11.32-19.24-84.77,28.12,47.07,60,165.52,25.29A58.82,58.82,0,0,1,317.33,344.72Z"/></svg>