<svg id="icon" xmlns="http://www.w3.org/2000/svg" viewBox="0 0 500 500"><path d="M118.69,92.1c-26.74,39.14-23.41,90.07-3,131.61l1.5,3,1,1.87c.19.37.41.72.6,1.08.36.66.71,1.29,1,1.94l2,3.4,1.12,1.88,2.26,3.6,1,1.52c1,1.62,2.16,3.23,3.28,4.82l.09.12a7.77,7.77,0,0,1,.51.76c1,1.37,2,2.72,3,4.05l1.12,1.46,2.76,3.45,1.05,1.29c1.26,1.51,2.54,3,3.85,4.47l.08.08c.05.07.1.11.15.17q1.91,2.14,3.91,4.2l1.25,1.29,3.13,3.12,1.27,1.23c1.41,1.35,2.83,2.67,4.28,4l.81.71,3.88,3.34,1.61,1.31,3.24,2.53,1.73,1.34,4.95,3.62c.13.09.24.18.37.26,1.16.81,2.34,1.6,3.52,2.38l1.53,1,5.53,3.44,1.53.88,4.15,2.37c.76.41,1.53.81,2.29,1.2l3,1.52.68.34,1.22.59,4.7,2.22,1,.51c1.82.8,3.65,1.58,5.49,2.32l1.33.54,5.18,1.95.65.23c1.91.68,3.84,1.32,5.77,1.93l1.39.42a60.72,60.72,0,0,0,6,1.72c129.32,24.08,166.89-79.09,166.89-79.09-31.55,41.86-87.55,52.89-140.6,40.61-2-.51-4-1.1-5.93-1.69l-1.47-.51q-2.88-.9-5.7-1.89l-.79-.29c-1.68-.6-3.36-1.24-5-1.89l-1.42-.57q-2.73-1.1-5.43-2.3l-1.08-.48-4.58-2.18-1.31-.65c-1.19-.6-2.37-1.21-3.55-1.84L215,261.11q-2.14-1.17-4.24-2.43l-1.43-.81c-1.87-1.11-3.71-2.27-5.53-3.44-.51-.33-1-.68-1.49-1l-3.94-2.66-1.26-.91-3.72-2.74-1.65-1.26-3.36-2.68-1.5-1.21-4.17-3.54a4.52,4.52,0,0,0-.51-.39c-1.49-1.33-3-2.7-4.39-4.07l-1.24-1.22-3.16-3.15-1.23-1.26q-2-2.06-3.87-4.17l-.2-.21q-2-2.23-3.92-4.55l-1-1.25-2.84-3.55-1-1.32L156,208.85c-29.46-40.92-40-97.36-16.5-143.72m62.17-6c-19.33,28.35-18.29,66.28-3.2,96.25a125.39,125.39,0,0,0,8.55,14.55c2.9,4.22,6.11,9.26,10,12.65,1.39,1.52,2.85,3,4.34,4.59.37.39.76.76,1.14,1.15,1.45,1.43,2.92,2.83,4.44,4.19.06.05.11.11.18.16,1.7,1.52,3.44,3,5.22,4.41l1.17.93q2.66,2.08,5.42,4l.15.11c.81.58,1.64,1.12,2.47,1.66.39.27.77.55,1.16.79,1.32.87,2.66,1.7,4,2.51l.56.33,3.55,2c.41.24.84.44,1.26.67l2.53,1.3.38.18c1.7.86,3.42,1.67,5.18,2.45.37.17.76.32,1.14.49,1.4.6,2.82,1.19,4.25,1.75l1.82.68q2,.72,3.9,1.38l1.76.57a41,41,0,0,0,5.64,1.66c99.84,16.85,122.9-61.45,122.9-61.45-20.78,30.48-61,45-104,33.68q-2.85-.76-5.66-1.68c-.57-.17-1.13-.36-1.7-.5-1.32-.44-2.64-.9-3.95-1.39l-1.79-.68c-1.43-.5-2.85-1.14-4.25-1.74-.38-.17-.77-.32-1.15-.5q-2.64-1.16-5.21-2.46c-.88-.44-1.75-.9-2.61-1.36l-1.51-.79c-1.12-.61-2.22-1.24-3.31-1.9l-.79-.5c-1.34-.81-2.68-1.64-4-2.49-.4-.27-.8-.51-1.2-.82l-2.59-1.75q-2.75-1.95-5.4-4l-1.21-1c-18.8-15.12-33.7-35.77-40.78-59.19-7.43-24.3-5.82-51.55,7.09-73.68m53.89-1.92C260.11,51.57,259,72.79,267,91.66c8.34,20,25.43,35.74,45.38,43.19.82.31,1.65.59,2.53.87l1.1.36a31.36,31.36,0,0,0,3.55,1c55.13,10.85,70.08-28.81,74.06-34.65-13.1,19.21-35.11,23.82-62.12,17.15-2.13-.53-4.48-1.32-6.58-2.06a78.73,78.73,0,0,1-7.76-3.28,80.31,80.31,0,0,1-13.61-8.46C279.28,87.14,264.27,51.52,280,22.5"/><path d="M149.75,397.22,146,410.46l3.74-13.23ZM169,426l-4.11,0Zm-1,19.77-24.66.1ZM173.11,426,169,426Zm-2.94,18.06,4.3-16.38Zm90.76-75.45-8,37.62Zm-20.58,0-6.07,28.11Z"/><path d="M259.51,366.9H242.4a2.26,2.26,0,0,0-2.1,1.69l-12.14,56.22a2.26,2.26,0,0,1-2.1,1.69H214c-12,0-10.6-8.29-8.1-19.64l.08-.34,1.45-7.75.63-3.19,5.53-27a1.35,1.35,0,0,0-1.38-1.69H194.59a2.21,2.21,0,0,0-2.08,1.69l-7.92,37.53c-4.35,19.86-3.19,38.8,20.45,39.39l.69,0h37.11a2.24,2.24,0,0,0,2.09-1.69l16-75.25a1.35,1.35,0,0,0-1.37-1.69Zm68.27,59.8a1.38,1.38,0,0,1,1.38,1.69l-1.66,8.12m-1.66,8.13,1.66-8.13Zm-2.09,1.71-31.53.15Z"/><path d="M282,416.24c0-.89,1-2.42,1.95-2.42l-2.14,0C280.8,423.47,282,416.24,282,416.24Zm11.78,30.26h0Zm34-19.8a1.38,1.38,0,0,1,1.38,1.69l-1.94,9.44m-25.35,8.69h0Zm-4.2,0h0Zm-1.28,0h0Zm-1.25,0h0Zm2.34,0h0Z"/><path d="M301.81,446.52l-4.13,0Zm21.95-.12-21.89.13Zm2-1.76,1.39-6.8-1.39,6.81Zm-29.85,1.86h0Zm-2.5,0h0Zm1.3,0h0ZM44.38,416.44,47,404.66l-3,13.46-.35,1.69.74-3.38ZM76.2,366.71H57.41a2.27,2.27,0,0,0-2.11,1.69l-3.57,15.69a1.32,1.32,0,0,0,.89,1.63,1.21,1.21,0,0,0,.46,0H72a2.26,2.26,0,0,0,2.1-1.68l3.44-15.73a1.33,1.33,0,0,0-1.37-1.68Zm-4.09,26.16-5.57,25.5ZM17.52,477.38l15.5.12c-4.58,0-12.14-.09-15.51-.13Z"/><path d="M49.65,392.87,47,404.65Zm21.11-1.69h-19a2.28,2.28,0,0,0-2.11,1.69l-5.32,23.57-.73,3.38-5.07,24.06c-.25,1.12-.55,2.23-.91,3.32,0,0-3.54,10.53-9.48,10.41l-5.9-.11a2.3,2.3,0,0,0-2.13,1.65l-3.92,16.52a1.32,1.32,0,0,0,.87,1.64,1.17,1.17,0,0,0,.45.06l15.51.13c14.86,0,22.69-8.24,27.71-31.93l11.39-52.64a1.33,1.33,0,0,0-1.36-1.69Zm269.09,54.36a1.37,1.37,0,0,1-1.37-1.69l14.25-66.75m6.92,66.74,5.77-28.49Z"/><path d="M338.69,444.69a7.25,7.25,0,0,1,.15-2.53l6.76-31.69-7.12,33.38a1.33,1.33,0,0,0,1.36,1.69h1.73C340.62,445.54,338.8,445.16,338.69,444.69Zm19.84.47a9.31,9.31,0,0,1-2.67.38h1.73a2.22,2.22,0,0,0,2.07-1.7l.35-1.69c-.19.93-1,2.8-1.52,3Zm4-15.56L365.08,417Zm56.22-48,.79,3.24a1.32,1.32,0,0,1-1.33,1.69"/><path d="M360,442.15l2.53-12.55Zm58-64,.77,3.32ZM365.08,417l.69-3.36,2.72-12.73-3.08,14.42-.33,1.67ZM353,376l-.59,2.79-6.76,31.68,7.12-33.37L353,376Z"/><path d="M419.54,384.81l-.78-3.24-1.16-5.06c-1.54-6-6.06-9.43-15.87-9.43l-45.15,0a2.22,2.22,0,0,0-2.08,1.69l-.7,3.31-1,5L338.9,442.1a7.25,7.25,0,0,0-.16,2.53c.12.51,1.94.85,2.89.85H355.9a9.44,9.44,0,0,0,2.68-.38c.52-.21,1.28-2,1.51-3l5.42-26.8,5.8-27.15a2.24,2.24,0,0,1,2.08-1.68l44.91,0a1.32,1.32,0,0,0,1.34-1.69Zm57.82-29.32H459.53a3.73,3.73,0,0,0-2.7,1.43L425,403.5c-.54.78-1.15.67-1.37-.25L421.34,393a2.28,2.28,0,0,0-2.11-1.69H398.79a1.23,1.23,0,0,0-1.25,1.66L406.65,425a7.68,7.68,0,0,1,.05,3.34l-4.05,15.53a1.26,1.26,0,0,0,.78,1.61,1.15,1.15,0,0,0,.52.06H424.2a2.35,2.35,0,0,0,2.15-1.67l4-15.52a10.42,10.42,0,0,1,1.47-3.06l51.66-68.5c.57-.76.26-1.38-.69-1.37l-5.41,0ZM315,395.66a2.08,2.08,0,0,1-2,1.78H287.06a1.11,1.11,0,0,1-1.21-1.37l0-.14.12-.44c2.53-6.58,7.51-10.9,17-10.9,10.67,0,12.75,5.22,12,11.07Zm-7.6-29.9c-33.25,0-41.13,20.19-45.55,40.56-4.43,20.77-4,40.19,30.37,40.19h5.45l4.2,0,21.9-.13a2.21,2.21,0,0,0,2.06-1.69l3.33-16.26a1.35,1.35,0,0,0-1.38-1.69H296.84c-12.3,0-16-3.27-14.62-12.88h49.46a2,2,0,0,0,1.83-1.28,2.11,2.11,0,0,0,.12-.43c7.34-27.69,5.24-46.35-26.22-46.35ZM150.21,395.55l-.46,1.66L146,410.45l-3.73,13.23a2.42,2.42,0,0,1-2.2,1.66H120.31c-15,0-18.64-11.73-15-29,3.64-17.69,10.8-28.69,25.56-29.81,20.17-1.52,24.19,12.67,19.33,29Zm13.56,28.78s9.31-22.63,11.44-35.7c2.88-17.5-5.87-42.87-39.71-42.87-33.64,0-48.25,24.22-53.83,50.61s1.74,49.79,35.18,49.61l51.06-.19a2.39,2.39,0,0,0,2.16-1.68l4.3-16.39a1.27,1.27,0,0,0-1.29-1.68l-8.24-.05a1.06,1.06,0,0,1-1.17-1.22,2,2,0,0,1,.1-.38Z"/><path d="M330.32,409.19a1.14,1.14,0,1,1-1.13-1.13A1.12,1.12,0,0,1,330.32,409.19Z"/></svg>