<svg id="icon" xmlns="http://www.w3.org/2000/svg" viewBox="0 0 500 500"><path d="M120.21,389.56H100.92q-1-48.84-5.64-91.86h-.17L65.74,389.56H51.05L21.85,297.7h-.17Q18.44,339,17.59,389.56H0q1.69-61.47,8.53-115.27H32.45L60.28,359h.17l28-84.7h22.88q7.52,63,8.88,115.27m83.67-85q-11.79,63.93-31.08,92.93-15,22.32-33,22.33-4.78,0-11.78-2.87V406.63a56.38,56.38,0,0,0,8,.52q8.38,0,13.5-4.62,6.13-5.62,6.14-12.63,0-4.8-4.78-19.64l-21.17-65.75h18.95l15.2,49.18q5.12,16.74,4.27,23.4a321.29,321.29,0,0,0,17.42-72.58h18.27Z"/><path d="M460.69,389.56H405.88V274.29h18.44V375.37h36.37Zm-69.15,2.79-21.19-10.46a38.91,38.91,0,0,0,5.29-5.15q13.51-15.87,13.5-46.95,0-57.19-44.9-57.21-22,0-34.33,14.52-13.5,15.88-13.49,46.79,0,30.39,11.95,44.56,10.94,12.81,33,12.81a53.22,53.22,0,0,0,15.09-2L384,405.3ZM322.89,366.5q-7-11.26-7-36.19,0-43.53,26.47-43.55,13.84,0,20.32,10.41,7,11.28,7,35.86,0,43.89-26.46,43.89-13.86,0-20.33-10.42m-34.5-8.89a30.57,30.57,0,0,1-10.76,24.08q-10.75,9.38-28.84,9.39-16.9,0-32.78-10.77l5-9.89q13.65,6.82,24.75,6.82,10.41,0,16.31-4.59a15.67,15.67,0,0,0,6.28-12.8c0-6.85-4.78-12.7-13.54-17.6-8.08-4.44-24.24-13.72-24.24-13.72-8.75-6.38-13.14-13.23-13.14-24.52q0-14,9.81-22.62t25.37-8.63a52.59,52.59,0,0,1,29.18,8.54l-4.44,9.9a56.48,56.48,0,0,0-22.19-4.77c-5.91,0-10.47,1.42-13.64,4.27a14.26,14.26,0,0,0-5.17,10.93c0,6.82,4.87,12.74,13.87,17.74,8.19,4.45,24.75,13.88,24.75,13.88,9,6.38,13.47,13.16,13.47,24.36"/><path d="M483.83,235.69c-11.15-.29-19.78.83-27,3.9-2.09.83-5.42.83-5.71,3.48,1.13,1.12,1.26,2.92,2.24,4.46a32.21,32.21,0,0,0,7.24,8.49c2.92,2.24,5.85,4.45,8.92,6.4,5.42,3.35,11.56,5.3,16.84,8.64,3.08,1.94,6.13,4.46,9.21,6.55,1.52,1.11,2.49,2.92,4.45,3.62v-.43c-1-1.25-1.26-3.06-2.23-4.46l-4.18-4a66.33,66.33,0,0,0-14.48-14.06c-4.46-3.07-14.21-7.25-16-12.38l-.29-.29a54.44,54.44,0,0,0,9.62-2.25c4.73-1.25,9.06-1,13.92-2.21,2.23-.56,4.45-1.26,6.7-2v-1.26c-2.52-2.51-4.32-5.84-7-8.21a184.85,184.85,0,0,0-23-17.13c-4.33-2.79-9.89-4.59-14.49-7-1.66-.83-4.46-1.25-5.43-2.64-2.5-3.07-3.91-7.1-5.72-10.73-4-7.65-7.94-16.14-11.41-24.24-2.51-5.43-4-10.85-7.11-15.87C404.58,128.45,389,114.11,365,100c-5.15-2.93-11.28-4.18-17.82-5.72l-10.45-.55c-2.23-1-4.46-3.63-6.41-4.88-7.95-5-28.41-15.87-34.26-1.53-3.76,9.06,5.57,18,8.78,22.57,2.37,3.19,5.43,6.82,7.09,10.44,1,2.37,1.26,4.88,2.24,7.38,2.23,6.13,4.31,12.95,7.24,18.67A66.76,66.76,0,0,0,326.6,155c1.12,1.54,3.06,2.23,3.49,4.74-1.94,2.78-2.1,7-3.21,10.44-5,15.74-3.05,35.23,4.05,46.8,2.22,3.48,7.52,11.15,14.61,8.21,6.28-2.51,4.89-10.44,6.69-17.4.42-1.69.15-2.79,1-3.89v.27c1.94,3.9,3.9,7.65,5.7,11.56,4.32,6.82,11.85,13.92,18.12,18.64,3.33,2.52,6,6.83,10.15,8.37v-.41h-.27c-.85-1.25-2.09-1.81-3.2-2.78a67.31,67.31,0,0,1-7.24-8.36,178.71,178.71,0,0,1-15.59-25.35c-2.25-4.32-4.18-9-6-13.37-.84-1.67-.84-4.18-2.24-5-2.09,3.06-5.15,5.71-6.68,9.46-2.65,6-2.92,13.38-3.91,21.05l-.54.27c-4.44-1.11-6-5.7-7.67-9.6-4.17-9.89-4.87-25.77-1.25-37.19,1-2.92,5.16-12.11,3.49-14.89-.84-2.67-3.63-4.19-5.16-6.28a57,57,0,0,1-5-8.91c-3.34-7.8-5-16.44-8.62-24.23-1.68-3.63-4.6-7.39-7-10.73-2.65-3.76-5.57-6.41-7.67-10.86-.7-1.54-1.67-4-.55-5.71a2.2,2.2,0,0,1,1.95-1.81c1.8-1.53,7,.41,8.76,1.25a70.67,70.67,0,0,1,13.79,7c1.95,1.4,4.05,4,6.55,4.74h2.93c4.44,1,9.46.27,13.65,1.53a89.79,89.79,0,0,1,20.05,9.6,123.58,123.58,0,0,1,43.44,47.64c1.67,3.2,2.38,6.13,3.9,9.47,2.93,6.83,6.56,13.79,9.47,20.48s5.72,13.22,9.9,18.66c2.08,2.92,10.45,4.45,14.21,6,2.77,1.25,7.1,2.36,9.6,3.89,4.74,2.92,9.46,6.28,13.92,9.49,2.22,1.67,9.19,5.15,9.6,7.94m-142.06-121a21.5,21.5,0,0,0-5.7.7v.28h.27c1.12,2.22,3.07,3.77,4.46,5.71,1.12,2.23,2.09,4.45,3.19,6.68l.27-.28c2-1.39,2.94-3.62,2.94-7-.84-1-1-2-1.68-2.93-.82-1.39-2.63-2.08-3.75-3.2"/><path d="M497.1,389.54H500V375.42h-4.33l-3.53,9.64-3.83-9.64h-4.17v14.12h2.72V378.8H487l4,10.74h2.07l4-10.74v10.74Zm-23.25,0h3V377.82h4v-2.4H469.69v2.4h4.15v11.72Z"/></svg>