<svg id="icon" xmlns="http://www.w3.org/2000/svg" viewBox="0 0 500 500"><path d="M250,131.64c133.91,0,236.88,56.41,236.88,118.36S383.83,368.36,250,368.36,13.12,312,13.12,250,116.17,131.64,250,131.64m0-13.12C112,118.52,0,177.34,0,250S112,381.48,250,381.48,500,322.66,500,250,388.05,118.52,250,118.52ZM170.47,239.45c-6.17,31.64-28,28.36-54.77,28.36l10.71-55.15c29.68,0,49.84-3.21,44.06,26.79ZM76.09,323.67h28.68l6.79-35c32.11,0,52,2.35,70.47-14.92,20.39-18.75,25.7-52.11,11.17-68.83-7.57-8.75-19.76-13-36.32-13H101.64ZM221.17,156.8h28.52l-6.8,35c24.61,0,47.42-1.8,58.44,8.36,11.56,10.62,6,24.21-6.49,88.36h-28.9c12-62,14.29-67.19,9.92-71.88-4.22-4.53-13.83-3.59-37-3.59l-14.69,75.47H195.63L221.17,156.8Zm173.36,82.65c-6.25,32.11-28.67,28.36-54.76,28.36l10.7-55.15c29.84,0,49.84-3.21,44.06,26.79Zm-94.37,84.22h28.75l6.79-35c33.75,0,52.43,2,70.47-14.92,20.39-18.75,25.71-52.11,11.17-68.83-7.57-8.75-19.76-13-36.32-13H325.78Z"/></svg>