<svg id="icon" xmlns="http://www.w3.org/2000/svg" viewBox="0 0 500 500"><path d="M144.22,249c-8.12,41.65-36.81,37.33-72.08,37.33l14.08-72.6c39.08,0,65.61-4.22,58,35.27ZM20,359.82H57.74l8.95-46.06c42.26,0,68.48,3.08,92.75-19.65,26.84-24.67,33.83-68.58,14.7-90.59-10-11.52-26-17.17-47.81-17.17H53.63ZM211,140.18h37.53l-9,46.06c32.4,0,62.42-2.36,76.92,11,15.22,14,7.92,31.88-8.53,116.3H269.88c15.83-81.65,18.82-88.44,13.06-94.6-5.55-6-18.2-4.74-48.74-4.74l-19.34,99.34H177.33L211,140.18ZM439.14,249c-8.23,42.27-37.74,37.33-72.09,37.33l14.09-72.6c39.28,0,65.61-4.22,58,35.27ZM314.92,359.82h37.84l8.95-46.06c44.42,0,69,2.57,92.75-19.65,26.84-24.67,33.83-68.58,14.71-90.59-10-11.52-26-17.17-47.82-17.17h-72.7Z"/></svg>