<svg id="icon" xmlns="http://www.w3.org/2000/svg" viewBox="0 0 500 500"><path d="M408.4,173q-7.9-2.62-15.82-5c.88-3.61,1.66-7.22,2.44-10.84,12-58.2,4.1-105-22.56-120.41-25.68-14.74-67.58.59-110,37.5-4.2,3.62-8.3,7.42-12.21,11.23-2.63-2.54-5.37-5.08-8.1-7.52-44.44-39.45-89-56-115.63-40.52-25.58,14.84-33.2,58.88-22.46,114,1.08,5.47,2.25,10.84,3.61,16.31-6.25,1.76-12.4,3.71-18.16,5.76C37.4,191.58,0,220.09,0,249.59c0,30.46,39.84,61,94,79.59,4.4,1.46,8.79,2.93,13.28,4.19-1.46,5.86-2.73,11.63-3.9,17.58-10.26,54.2-2.25,97.17,23.34,111.92,26.37,15.23,70.7-.39,113.86-38.19,3.42-3,6.84-6.15,10.26-9.47,4.3,4.2,8.79,8.2,13.28,12.11,41.8,35.94,83.11,50.49,108.59,35.74,26.37-15.23,35-61.42,23.83-117.67q-1.32-6.45-2.93-13.19c3.13-.88,6.15-1.85,9.18-2.83C459.18,310.72,500,280.54,500,249.59c0-29.59-38.48-58.31-91.6-76.57ZM276.27,90.11c36.33-31.64,70.21-44,85.64-35.15,16.51,9.47,22.86,47.75,12.5,98-.68,3.32-1.36,6.55-2.24,9.77a499.85,499.85,0,0,0-65.72-10.35,493.55,493.55,0,0,0-41.61-51.86C268.65,97,272.36,93.53,276.27,90.11Zm-113,210.16c5,8.5,10.06,17,15.43,25.29a443,443,0,0,1-45.31-7.32,457,457,0,0,1,15.92-43.46c4.49,8.59,9.08,17.09,14,25.49ZM133.69,182.79c14.06-3.13,29-5.67,44.53-7.62-5.17,8.11-10.25,16.41-15,24.81s-9.47,16.79-13.86,25.39c-6.16-14.55-11.33-28.81-15.63-42.58Zm26.76,67.28c6.44-13.47,13.48-26.66,20.9-39.64s15.43-25.59,23.83-38c14.64-1.08,29.59-1.66,44.82-1.66s30.27.58,44.82,1.66q12.45,18.45,23.73,37.79t21.2,39.45q-9.83,20.22-21.1,39.85c-7.42,13-15.33,25.58-23.63,38.08-14.55,1.08-29.69,1.57-45,1.57s-30.18-.49-44.53-1.37q-12.75-18.6-24-38.09c-7.52-13-14.46-26.17-21-39.65Zm176.37,50c5-8.59,9.66-17.28,14.25-26.07a455.25,455.25,0,0,1,16.51,43.26,426.64,426.64,0,0,1-45.9,7.81c5.27-8.2,10.25-16.6,15.14-25Zm14.06-74.7c-4.59-8.6-9.28-17.19-14.16-25.59s-9.77-16.5-14.94-24.61A449.19,449.19,0,0,1,366.6,183,430.59,430.59,0,0,1,350.88,225.37ZM250.2,115.5a431.48,431.48,0,0,1,28.9,35c-19.33-.87-38.77-.87-58.1,0C230.57,137.87,240.43,126.15,250.2,115.5ZM136.91,55.64c16.41-9.57,52.84,4.1,91.22,38.09,2.44,2.14,4.88,4.49,7.42,6.83a496.26,496.26,0,0,0-41.9,51.86A515.06,515.06,0,0,0,128,162.57c-1.27-5-2.35-10-3.42-15.13-9.18-47.27-3.13-82.91,12.3-91.8ZM113,313.06c-4.1-1.17-8.11-2.44-12.11-3.81-20.8-6.54-44.43-16.89-61.52-30.47A43.76,43.76,0,0,1,21,249.59c0-17.88,30.86-40.73,75.39-56.25,5.56-2,11.23-3.72,16.89-5.38a517.73,517.73,0,0,0,23.93,62.11A533.55,533.55,0,0,0,113,313.06Zm113.87,95.71a179,179,0,0,1-55.08,34.47,43.28,43.28,0,0,1-34.48,1.27c-15.52-9-22-43.46-13.18-89.85,1.08-5.47,2.25-10.93,3.61-16.3A489.91,489.91,0,0,0,194,347.93a514.24,514.24,0,0,0,42.19,52.14c-3.12,3-6.25,6-9.37,8.7ZM250.78,385c-10-10.74-19.92-22.65-29.59-35.44,9.38.39,19,.58,28.81.58,10.06,0,19.92-.19,29.69-.68A420.07,420.07,0,0,1,250.78,385Zm127.64,29.3A43.39,43.39,0,0,1,362.3,444.9c-15.52,9-48.63-2.74-84.37-33.4-4.1-3.52-8.2-7.32-12.4-11.23a483.75,483.75,0,0,0,41.21-52.34,482.17,482.17,0,0,0,66.6-10.26c1,4,1.86,8,2.64,11.92a178.21,178.21,0,0,1,2.44,64.74Zm17.77-105c-2.73.88-5.47,1.76-8.3,2.54a496,496,0,0,0-24.9-62.3,494.58,494.58,0,0,0,23.92-61.43c5.08,1.46,10,3,14.65,4.59C447.07,208.37,479,231.62,479,249.39,479,268.53,444.92,293.24,396.19,309.35ZM250,294.7A44.73,44.73,0,1,0,205.27,250,44.72,44.72,0,0,0,250,294.7Z"/></svg>