<svg id="icon" xmlns="http://www.w3.org/2000/svg" viewBox="0 0 500 500"><defs><style>.cls-1{fill-rule:evenodd;}</style></defs><path class="cls-1" d="M15.43,403.44H189.59S156.3,251.54,266.53,190c24-11.69,100.53-55.34,225.75,37.25,4-3.3,7.72-5.95,7.72-5.95S385.36,106.92,257.71,119.71C193.34,125.44,114.42,183.86,68.12,261,22.55,337,15.64,401.4,15.43,403.39v.05Zm180.78-44.09a224.68,224.68,0,0,0,2.64,27.78l26.46,9.48c-2-8.6-4-18.3-5.29-28.66l-23.81-8.6ZM36.38,297.18,11,287.92c-4.19,9.48-8.81,20.5-11,26.46l25.35,9.25C28.22,316.14,32.85,305.34,36.38,297.18ZM103,198.63,87.3,185C81.57,190.48,76.06,196,71,201.5l17,14.55A225.64,225.64,0,0,1,103,198.63Zm96.57,104.72,17.85,14.11A177.48,177.48,0,0,1,222,291.67L206.13,279.1a208,208,0,0,0-6.61,24.25Zm32-71,10.58,15.88a122.07,122.07,0,0,1,13-15.66l-9.92-15a122.23,122.23,0,0,0-13.67,14.77Zm-45.19-99.2-9.92-15.22c-5.51,2.87-11.25,6-17.2,9.48l10.14,15.44C175,139.33,180.56,136,186.29,133.16Zm100.09,58,5.07,15.21a139.29,139.29,0,0,1,19.18-7.72l-4.85-14.55A159.61,159.61,0,0,0,286.38,191.14ZM275.79,110H278l-4.41-13.45a176.19,176.19,0,0,0-21.16,1.32l4.18,13a186.63,186.63,0,0,1,19.18-.88Zm81.57,68.78-.88,13.89a122.33,122.33,0,0,1,21.83,2.65l.88-13.67a155,155,0,0,0-21.83-2.87Zm20.95-46.73.88-14.78c-2-1.1-7.49-3.74-21.38-7.71l-.89,14.55C364.2,126.54,371.25,129.19,378.31,132.06Z"/></svg>