<svg id="icon" xmlns="http://www.w3.org/2000/svg" viewBox="0 0 500 500"><path d="M235.81,346m194.64-68a102.61,102.61,0,0,0-45.32,10.55c-4.6-9.3-9.37-17.42-10.15-23.51-.94-7.11-2-11.33-.86-19.77s6-20.39,5.94-21.25-1.1-5.16-11.18-5.24-18.75,2-19.75,4.61A95.49,95.49,0,0,0,345,238.36c-1.8,9.14-20.15,41.79-30.54,58.83-3.44-6.65-6.33-12.51-7-17.19-.93-7.11-1.95-11.33-.86-19.77s6-20.39,5.94-21.25-1.09-5.16-11.16-5.23-18.75,1.95-19.77,4.61-2.11,8.9-4.14,14.92S251,313.67,244.63,327.81c-3.29,7.19-6.1,13-8.13,16.88-.31.62-.55,1-.7,1.32.23-.39.39-.78.39-.62-1.72,3.36-2.74,5.23-2.74,5.23v.08c-1.33,2.5-2.81,4.77-3.51,4.77-.47,0-1.49-6.57.23-15.55,3.67-18.91,12.35-48.28,12.27-49.3-.08-.54,1.64-5.62-5.71-8.36-7.11-2.58-9.68,1.72-10.31,1.72s-1.09,1.56-1.09,1.56,7.89-33.12-15.15-33.12c-14.38,0-34.38,15.78-44.2,30.08-6.18,3.36-19.54,10.62-33.6,18.36-5.39,3-10.94,6-16.17,8.9-.39-.39-.7-.78-1.09-1.17-28-29.84-79.59-50.94-77.4-91,.78-14.6,5.86-53,99.27-99.53,76.56-38.12,137.78-27.65,148.32-4.37,15.15,33.2-32.73,95-112.24,103.9-30.31,3.36-46.24-8.35-50.22-12.73-4.14-4.61-4.77-4.84-6.33-4-2.58,1.4-.94,5.46,0,7.89,2.35,6.17,12.11,17.11,28.74,22.58,14.61,4.76,50.15,7.42,93.11-9.22,48.26-18.6,85.83-70.4,74.82-113.76-11.22-44.06-84.28-58.51-153.37-34C118.65,89,74.14,112,42.11,141.87,4.08,177.5-2,208.51.49,221.48c8.9,46,72.32,76,97.7,98.21-1.25.7-2.42,1.32-3.51,1.95C82,328,33.6,353.28,21.5,380c-13.67,30.31,2.26,52,12.72,55,32.65,9.06,66.08-7.27,84-34.06s15.79-61.8,7.5-77.74c-.07-.23-.23-.39-.31-.62,3.28-2,6.64-3.91,10-5.86,6.48-3.83,12.81-7.35,18.35-10.39-3.12,8.43-5.39,18.59-6.56,33.28-1.41,17.19,5.7,39.45,14.92,48.2,4.07,3.83,9,3.91,12,3.91,10.78,0,15.62-8.91,21-19.53,6.65-13,12.5-28.05,12.5-28.05s-7.34,40.78,12.74,40.78c7.34,0,14.68-9.45,18-14.3v.08a10.76,10.76,0,0,1,.55-.94c.78-1.17,1.17-1.87,1.17-1.87v-.24c3-5.07,9.45-16.71,19.21-35.93,12.65-24.85,24.76-55.86,24.76-55.86A156.72,156.72,0,0,0,288.93,296c2.19,7.43,6.8,15.55,10.47,23.44-3,4.06-4.77,6.41-4.77,6.41a.28.28,0,0,0,.08.15c-2.34,3.13-5,6.49-7.73,9.77-10,11.87-21.88,25.47-23.44,29.37-1.88,4.61-1.41,8.05,2.19,10.71,2.65,2,7.34,2.34,12.25,1.95a53.88,53.88,0,0,0,18.36-4.22,64.1,64.1,0,0,0,15.78-8.28c9.76-7.19,15.7-17.5,15.15-31.09-.31-7.5-2.73-15-5.7-22,.86-1.25,1.8-2.58,2.66-3.91a415.25,415.25,0,0,0,27.41-47.36,156.9,156.9,0,0,0,4.85,20.16c1.87,6.32,5.53,13.28,8.89,20.07-14.52,11.8-23.5,25.47-26.63,34.46-5.78,16.64-1.25,24.14,7.27,25.86,3.83.78,9.29-1,13.36-2.74a62,62,0,0,0,16.86-8.67c9.77-7.19,19.21-17.27,18.59-30.94a57.9,57.9,0,0,0-4.22-18.28c12.27-5.15,28.2-8,48.51-5.62,43.5,5.07,52,32.26,50.38,43.59s-10.79,17.66-13.83,19.53-4,2.58-3.75,4c.39,2,1.79,1.95,4.37,1.48,3.6-.62,22.81-9.22,23.67-30.23,1.25-26.57-24.29-55.79-69.54-55.55Zm-335.3,113C80.78,406.8,60.62,412.73,52,407.73c-9.3-5.4-5.63-28.51,12.1-45.25C74.84,352.33,88.74,343,98,337.17c2.11-1.25,5.16-3.13,8.91-5.39.62-.39.93-.55.93-.55.71-.47,1.49-.86,2.27-1.33,6.48,23.75.23,44.69-14.92,61.18Zm105-71.4c-5,12.26-15.54,43.51-22,41.87-5.47-1.41-8.83-25.23-1.09-48.67,3.9-11.8,12.19-25.86,17.11-31.33,7.88-8.83,16.55-11.64,18.58-8.13,2.74,4.61-9.53,38.6-12.65,46.26Zm86.72,41.4c-2.11,1.1-4.07,1.8-5,1.25-.71-.39.86-1.87.86-1.87s10.86-11.64,15.15-17c2.5-3.12,5.39-6.79,8.51-10.86,0,.39.08.79.08,1.25-.1,14-13.53,23.44-19.63,27.19Zm66.86-15.23c-1.57-1.1-1.33-4.77,3.9-16.17a60.6,60.6,0,0,1,14.85-19.15,28.25,28.25,0,0,1,1.48,8.44c-.08,17.58-12.66,24.14-20.23,26.88Z"/></svg>