<svg id="icon" xmlns="http://www.w3.org/2000/svg" viewBox="0 0 500 500"><path d="M20,20V480H480V20ZM282.89,269.55h-59.8v170.2H180.66V269.55H120.85V250.81h0l.35.11V232.06l80.5-.34c44.28,0,80.73.11,80.73.46.46.23.46,8.62.46,19ZM438.6,404.79c-7.36,19.21-25.3,32.2-50.94,36.46-8.05,1.38-26.45,1.15-35.08-.35-18.4-3.45-36-12.65-46.8-24.49-4.26-4.6-12.42-16.91-12-17.71l4.37-2.76,17.25-10,13-7.59,3,4c3.8,6,12.31,14,17.25,16.79,14.95,7.7,35,6.67,44.85-2.3a17.22,17.22,0,0,0,6.1-13.8c0-5.29-.81-7.71-3.45-11.73-3.68-5.06-11-9.2-31.74-18.4-23.81-10.12-33.93-16.56-43.36-26.45-5.4-6-10.35-15.3-12.65-23-1.72-6.67-2.3-23-.69-29.56,4.94-23,22.31-39.1,47.15-43.7,8.05-1.61,27-.92,35,1.15l-.23.23a55.66,55.66,0,0,1,28.75,16.45c4.25,4.6,10.58,12.65,11,14.72,0,.69-19.89,14.14-32,21.62-.46.34-2.3-1.61-4.14-4.6-6-8.51-12.07-12.19-21.62-12.88-13.8-.92-23,6.32-23,18.4a18.17,18.17,0,0,0,2.07,8.74c3.11,6.32,8.86,10.12,26.68,17.94,32.89,14.14,47.15,23.46,55.78,36.8C443,363.74,445.16,387.2,438.6,404.79Z"/></svg>