<svg id="icon" xmlns="http://www.w3.org/2000/svg" viewBox="0 0 500 500"><path d="M250,2C113.3,2,2,113.2,2,250S113.3,498,250,498,498,386.7,498,250,386.7,2,250,2ZM27,250a221.44,221.44,0,0,1,19.3-90.7L152.7,450.7C78.3,414.5,27,338.2,27,250ZM250,473a222.12,222.12,0,0,1-63-9.1l66.9-194.4,68.5,187.8a30.13,30.13,0,0,0,1.6,3.1A223.24,223.24,0,0,1,250,473Zm30.7-327.5c13.4-.7,25.5-2.1,25.5-2.1,12-1.4,10.6-19.1-1.4-18.4,0,0-36.1,2.8-59.4,2.8-21.9,0-58.7-2.8-58.7-2.8-12-.7-13.4,17.7-1.4,18.4,0,0,11.4,1.4,23.4,2.1l34.7,95.2L194.6,387,113.4,145.5c13.4-.7,25.5-2.1,25.5-2.1,12-1.4,10.6-19.1-1.4-18.4,0,0-36.1,2.8-59.4,2.8-4.2,0-9.1-.1-14.4-.3a223,223,0,0,1,336.9-42,28.25,28.25,0,0,0-2.9-.2c-21.9,0-37.4,19.1-37.4,39.6,0,18.4,10.6,33.9,21.9,52.3,8.5,14.8,18.4,33.9,18.4,61.5,0,19.1-7.3,41.2-17,72.1l-22.2,74.3L280.7,145.5Zm81.4,297.2,68.1-196.9c12.7-31.8,17-57.2,17-79.9a164.12,164.12,0,0,0-1.5-22.9,223,223,0,0,1-83.6,299.7Z"/></svg>