<svg id="icon" xmlns="http://www.w3.org/2000/svg" viewBox="0 0 500 500"><path d="M393.54,29.62A101.21,101.21,0,0,0,220.79,97.3v96a9,9,0,0,0,9,9h87.66c30.82.11,55.18-8.62,76.05-29.53A101.4,101.4,0,0,0,393.54,29.62Z"/><path d="M29.63,106.84A101.21,101.21,0,0,0,97.3,279.59h96a9,9,0,0,0,9-9V182.9c.11-30.83-8.62-55.18-29.53-76.06A101.4,101.4,0,0,0,29.63,106.84Z"/><path d="M106.82,470.38A101.21,101.21,0,0,0,279.57,402.7v-96a9,9,0,0,0-9-9H182.87c-30.82-.11-55.18,8.62-76.05,29.53A101.4,101.4,0,0,0,106.82,470.38Z"/><path d="M470.37,393.23A101.21,101.21,0,0,0,402.7,220.48h-96a9,9,0,0,0-9,9v87.66c-.11,30.82,8.62,55.18,29.53,76.05A101.39,101.39,0,0,0,470.37,393.23Z"/></svg>