<svg id="icon" xmlns="http://www.w3.org/2000/svg" viewBox="0 0 500 500"><path d="M116.2,222.2a137.09,137.09,0,0,1,75.7-95.7,882.12,882.12,0,0,1,50.7,79C178.6,222.5,122.3,222.3,116.2,222.2ZM340.6,148A136.18,136.18,0,0,0,218,117.4a735.57,735.57,0,0,1,51,80C317.6,179.1,338.1,151.5,340.6,148ZM166.1,358a136.41,136.41,0,0,0,137.3,18c-2-12-10-53.8-29.2-103.6-55.1,18.8-93.8,56.4-108.1,85.6Zm98.8-108.2c-3.4-7.8-7.2-15.5-11.1-23.2C185.6,247,119.4,246.2,113.4,246c0,1.4-.1,2.8-.1,4.2a136.42,136.42,0,0,0,35.1,91.4c22.2-37.9,67.1-77.9,116.5-91.8Zm34.9,16.3c17.9,49.1,25.1,89.1,26.5,97.4a136.81,136.81,0,0,0,58.6-91.6C380.3,270.4,342.6,259.2,299.8,266.1Zm-20.3-48.4c4.8,9.8,8.3,17.8,12,26.8,45.5-5.7,90.7,3.4,95.2,4.4a135.36,135.36,0,0,0-30.9-85.1C352.9,167.7,330,197,279.5,217.7ZM474,74V426a48,48,0,0,1-48,48H74a48,48,0,0,1-48-48V74A48,48,0,0,1,74,26H426A48,48,0,0,1,474,74ZM410,250c0-88.2-71.8-160-160-160S90,161.8,90,250s71.8,160,160,160S410,338.2,410,250Z"/></svg>