<svg id="icon" xmlns="http://www.w3.org/2000/svg" viewBox="0 0 500 500"><path d="M87,250.2,91.58,301,87,354.35a3.68,3.68,0,0,1-3.43,3.44,3.38,3.38,0,0,1-3.28-3.44L76,301l4.38-50.78a3.36,3.36,0,0,1,3.28-3.29A3.74,3.74,0,0,1,87,250.2Zm16.73-35.64a4,4,0,0,0-3.91,3.91L96,301l3.91,53.37a4,4,0,0,0,3.91,3.91,3.83,3.83,0,0,0,3.67-3.91L112,301l-4.53-82.51A3.83,3.83,0,0,0,103.77,214.56Zm19.92-18.83a4.31,4.31,0,0,0-4.37,4.14l-3.44,101.58,3.44,53a4.31,4.31,0,0,0,4.37,4.14,4.12,4.12,0,0,0,4.14-4.14l4.14-53-4.14-101.58a4.12,4.12,0,0,0-4.14-4.14ZM5.63,271.21c-1.1,0-1.72.86-2,2L0,301l3.67,27.35c.24,1.1.86,2,2,2s1.71-.86,2-2L12,301,7.58,273.17c-.24-1.1-.86-2-1.95-2ZM24.07,254.1a1.94,1.94,0,0,0-2,2l-5,44.92,5,43.84a2,2,0,0,0,2,2.19,2.32,2.32,0,0,0,2.18-2L31.88,301l-5.63-44.92A2.32,2.32,0,0,0,24.07,254.1Zm19.76-8.91a2.71,2.71,0,0,0-2.57,2.58L36.72,301l4.54,51.42a2.8,2.8,0,0,0,2.57,2.42,2.44,2.44,0,0,0,2.43-2.42L51.65,301l-5.39-53.21a2.48,2.48,0,0,0-2.43-2.58Zm19.77-1.71a2.75,2.75,0,0,0-2.81,2.81L56.26,301l4.53,53a2.75,2.75,0,0,0,2.81,2.81A3.1,3.1,0,0,0,66.65,354l5-53-5-54.69a3.1,3.1,0,0,0-3.05-2.81Zm188.63-86.66a6.15,6.15,0,0,0-3.28-1.09,7.18,7.18,0,0,0-4.38,1.48,8,8,0,0,0-2.58,5.24v.62l-2.58,138.07,1.33,25.4,1.33,24.76a7.13,7.13,0,0,0,7,6.72,6.76,6.76,0,0,0,6.72-6.72l3.05-50.16-3.05-138.69a7.53,7.53,0,0,0-3.51-5.63Zm-20.87,12a6.79,6.79,0,0,0-3.43-1.1,6.58,6.58,0,0,0-3.44,1.1,6.15,6.15,0,0,0-2.81,5.23l-.24,1.33L219.25,301s0,.24,2.43,51.26v.24a5.86,5.86,0,0,0,1.32,3.67,6.72,6.72,0,0,0,5,2.42,6.35,6.35,0,0,0,4.38-1.95,5.39,5.39,0,0,0,2-4.38l.24-5.23L237,301.22,234.41,174a7,7,0,0,0-3-5.23Zm-87,17.58a4.74,4.74,0,0,0-4.53,4.76L136.35,301l3.44,52.51a4.74,4.74,0,0,0,4.53,4.53,4.8,4.8,0,0,0,4.77-4.53L153,301l-3.9-109.86a4.89,4.89,0,0,0-4.77-4.76Zm294.34,49.07a62.91,62.91,0,0,0-23.91,4.76,108.58,108.58,0,0,0-108.06-98.76,106.64,106.64,0,0,0-39.3,7.34c-4.77,1.72-6.1,3.44-6.1,7.19V351.07a7.36,7.36,0,0,0,6.72,7.19H438.58a61.42,61.42,0,0,0,.08-122.83ZM206.83,188.31a6.21,6.21,0,0,0-6.1,6.1l-2.57,106.81,2.57,51.26a6.17,6.17,0,0,0,6.1,5.86,5.81,5.81,0,0,0,5.86-5.86l3.05-51.26-3.05-106.81c-.24-3.52-2.58-6.1-5.86-6.1ZM165,182.22a5.3,5.3,0,0,0-5,5.23L156.9,301l3,52.28a5.12,5.12,0,0,0,10.23,0L173.62,301l-3.44-113.53A5.5,5.5,0,0,0,165,182.22Zm20.86,2.65a5.35,5.35,0,0,0-5.39,5.39l-3,110.72,3,51.89a5.5,5.5,0,0,0,5.39,5.39,5.4,5.4,0,0,0,5.39-5.39L194.48,301,191.2,190.26a5.31,5.31,0,0,0-5.39-5.39Z"/></svg>