<svg id="icon" xmlns="http://www.w3.org/2000/svg" viewBox="0 0 500 500"><path d="M396.3,469c-13.28,14.16-48.83,31-95.12,31-118,0-143.55-86.72-143.55-137.3V222.07H111.24a9.8,9.8,0,0,1-9.77-9.77V145.9a16.55,16.55,0,0,1,11-15.63C173.06,109,192.1,56.05,194.83,15.92,195.61,5.18,201.18,0,210.56,0h69.23a9.8,9.8,0,0,1,9.77,9.77v112.5h81.05a9.7,9.7,0,0,1,9.77,9.66v79.79a9.79,9.79,0,0,1-9.77,9.76H289.17V351.56c0,33.4,23.14,52.35,66.4,35,4.69-1.85,8.79-3.12,12.41-2.15,3.42.88,5.66,3.33,7.22,7.72l21.49,62.79c1.76,4.89,3.22,10.35-.39,14.16Z"/></svg>