<svg id="icon" xmlns="http://www.w3.org/2000/svg" viewBox="0 0 500 500"><path d="M426,26H74A48,48,0,0,0,26,74V426a48,48,0,0,0,48,48H426a48,48,0,0,0,48-48V74A48,48,0,0,0,426,26ZM343.7,390.2c-8.5,9.1-31.2,19.8-60.9,19.8-75.5,0-91.9-55.5-91.9-87.9v-90H161.2a6.23,6.23,0,0,1-6.2-6.2V183.4a10.55,10.55,0,0,1,7.1-10c38.8-13.7,50.9-47.5,52.7-73.2.5-6.9,4.1-10.2,10-10.2h44.3a6.23,6.23,0,0,1,6.2,6.2v72h51.9a6.23,6.23,0,0,1,6.2,6.2v51.1a6.23,6.23,0,0,1-6.2,6.2H275.1V315c0,21.4,14.8,33.5,42.5,22.4,3-1.2,5.6-2,8-1.4,2.2.5,3.6,2.1,4.6,4.9L344,381.1c1,3.2,2,6.7-.3,9.1Z"/></svg>