<svg id="icon" xmlns="http://www.w3.org/2000/svg" viewBox="0 0 500 500"><path d="M212.8,196.1,308,250.2l-95.2,54.1ZM474,74V426a48,48,0,0,1-48,48H74a48,48,0,0,1-48-48V74A48,48,0,0,1,74,26H426A48,48,0,0,1,474,74ZM432,250.3s0-59.6-7.6-88.2a45.64,45.64,0,0,0-32.2-32.4C363.9,122,250,122,250,122s-113.9,0-142.2,7.7a45.64,45.64,0,0,0-32.2,32.4C68,190.6,68,250.3,68,250.3s0,59.6,7.6,88.2a45,45,0,0,0,32.2,31.9C136.1,378,250,378,250,378s113.9,0,142.2-7.7a45,45,0,0,0,32.2-31.9c7.6-28.5,7.6-88.1,7.6-88.1Z"/></svg>