<svg id="icon" xmlns="http://www.w3.org/2000/svg" viewBox="0 0 500 500"><defs><style>.cls-1{fill:#000b1d;}.cls-2{fill:#fff;}</style></defs><g id="Layer_2" data-name="Layer 2"><g id="DC_EC_Logo_Surface" data-name="DC EC Logo Surface"><g id="Outline_no_shadow" data-name="Outline no shadow"><path class="cls-1" d="M101.46,25.75H398.54A81.39,81.39,0,0,1,480,107.21V392.79a81.39,81.39,0,0,1-81.46,81.46H101.46A81.39,81.39,0,0,1,20,392.79V107.21A81.39,81.39,0,0,1,101.46,25.75Z"/></g></g></g><g id="Layer_3" data-name="Layer 3"><g id="Layer_86" data-name="Layer 86"><path id="_64" data-name=" 64" class="cls-2" d="M389.92,285.46C368.64,262.84,309.8,272,296,274.34c-20.32-19.74-34.5-43.12-39.29-51.75,7.67-21.85,12.65-45,13.41-67.85,0-20.7-8.24-42.93-31.24-42.93a23.32,23.32,0,0,0-19.36,11.31c-9.77,16.86-5.94,51.75,9.78,87-9.2,25.88-22.42,63.25-39.87,93.54-23.57,9.39-73.6,32.39-78.39,57.88a21.55,21.55,0,0,0,6.9,20.32,29.2,29.2,0,0,0,20.32,7.28c30.09,0,60.18-41.78,80.5-77.62a510.79,510.79,0,0,1,71.68-18.79c31.82,27.79,60.18,32,74.56,32,19.55,0,26.83-8.43,29.52-15.53A23.94,23.94,0,0,0,389.92,285.46ZM369.22,300c-1,5.55-8.05,11.11-21.28,8.24a106.48,106.48,0,0,1-41.78-21.09c10.35-1.72,34.5-4,51.56-.76C363.85,287.57,370.94,291,369.22,300ZM232,130.4a7.71,7.71,0,0,1,6.71-4.22c7.29,0,8.82,8.82,8.82,16.1-1,17.44-4.79,35.27-9.59,51.18C225.66,160.88,227.38,138.26,232,130.4Zm-1.72,159.27c6.51-12.84,15.71-36.22,19-45.61,7.29,12.07,19.55,27.21,26.07,34.11A433.1,433.1,0,0,0,230.26,289.67Zm-48.11,33c-19.36,31.05-38.33,50.6-49.45,50.6a7.85,7.85,0,0,1-5-1.72,7.14,7.14,0,0,1-2.49-7.1C127.33,353.31,149.38,337.21,182.15,322.64Z"/></g></g></svg>