<svg id="icon" xmlns="http://www.w3.org/2000/svg" viewBox="0 0 500 500"><defs><style>.cls-1{fill:#00005b;}.cls-2{fill:#99f;}</style></defs><g id="Layer_2" data-name="Layer 2"><g id="Surfaces"><g id="Video_Audio_Surface" data-name="Video Audio Surface"><g id="Outline_no_shadow" data-name="Outline no shadow"><path class="cls-1" d="M101.46,25.75H398.54A81.39,81.39,0,0,1,480,107.21V392.79a81.39,81.39,0,0,1-81.46,81.46H101.46A81.39,81.39,0,0,1,20,392.79V107.21A81.39,81.39,0,0,1,101.46,25.75Z"/></g></g></g><g id="Outlined_Mnemonics_Logos" data-name="Outlined Mnemonics Logos"><g id="Ae"><path class="cls-2" d="M204.77,294.08h-71.3L118.9,339.32a3.36,3.36,0,0,1-3.64,2.68h-36c-2.1,0-2.68-1.15-2.1-3.45l61.71-176.91c.58-1.91,1.15-3.64,1.92-5.94a66.62,66.62,0,0,0,1.15-12.46,1.9,1.9,0,0,1,1.53-2.11h49.65c1.34,0,2.29.58,2.49,1.54l70,196.45c.57,2.11,0,3.07-1.92,3.07H223.55a2.9,2.9,0,0,1-3.07-2.11Zm-60.19-38.14h48.69c-1.15-4-2.69-8.82-4.41-13.8-1.73-5.17-3.45-10.73-5.18-16.48C181.77,219.72,180,214,178.12,208S174.48,196.53,173,191c-1.53-5.37-2.87-10.35-4.22-14.95h-.38a232.45,232.45,0,0,1-6.52,24.72c-2.87,9.2-5.75,18.79-8.81,28.37C150.52,238.88,147.46,247.89,144.58,255.94Z"/><path class="cls-2" d="M379.18,276.45H318.42a42.32,42.32,0,0,0,5.95,17.06,30.42,30.42,0,0,0,14,11.5,59.62,59.62,0,0,0,24.53,4.79,115.39,115.39,0,0,0,19.94-2.11,71.93,71.93,0,0,0,17.05-4.41c1-.76,1.54-.38,1.54,1.54v29.32a9.72,9.72,0,0,1-.39,2.3,4.29,4.29,0,0,1-1.34,1.34,81.7,81.7,0,0,1-19.16,5.75,129.3,129.3,0,0,1-27.22,2.3c-14.57,0-26.83-2.3-36.8-6.71a64.59,64.59,0,0,1-24.15-18.2,70.55,70.55,0,0,1-13.23-25.11,99.38,99.38,0,0,1,.77-58.46,78.29,78.29,0,0,1,14.38-26.26,69.38,69.38,0,0,1,23.19-18.21c9-4.41,19.74-5.94,32-5.94a69.34,69.34,0,0,1,29.7,5.94,52.82,52.82,0,0,1,20.13,15.34,70.13,70.13,0,0,1,11.5,21.85,75.38,75.38,0,0,1,3.64,23.38c0,4.6-.19,8.62-.38,12.27-.39,3.64-.58,6.32-.77,8a2.86,2.86,0,0,1-2.68,2.49c-1.15,0-3.26.19-6.33.38a91.17,91.17,0,0,1-11.11.58C388.77,277.22,384.17,276.45,379.18,276.45Zm-60.76-28h40.45c5,0,8.62,0,10.92-.2a9.31,9.31,0,0,0,4.41-1.53v-1.92a21.9,21.9,0,0,0-1.15-7.09,25.38,25.38,0,0,0-24.92-17.63,27,27,0,0,0-25.49,14.57A39.79,39.79,0,0,0,318.42,248.47Z"/></g></g></g></svg>