<svg id="icon" xmlns="http://www.w3.org/2000/svg" viewBox="0 0 500 500"><defs><style>.cls-1{fill:#013301;}.cls-2{fill:#3f6;}</style></defs><g id="Layer_2" data-name="Layer 2"><g id="Surfaces"><g id="_3D_Surface" data-name=" 3D Surface"><g id="Outline_no_shadow" data-name="Outline no shadow"><rect class="cls-1" x="20" y="25.75" width="460" height="448.5" rx="81.46"/></g></g></g><g id="Outlined_Mnemonics_Logos" data-name="Outlined Mnemonics Logos"><g id="Dn"><path class="cls-2" d="M87,339.65V143.39a2.25,2.25,0,0,1,2-2.46h.14q4.64-.3,13.58-.46t21-.31q12-.15,25.61-.15,37,0,61.41,12.65a85.44,85.44,0,0,1,36.57,34.71q12.18,22.06,12.19,50.76a113.3,113.3,0,0,1-6.33,39.35,91.61,91.61,0,0,1-17.28,29.47,102.77,102.77,0,0,1-24.84,20.52,109.08,109.08,0,0,1-29.62,12,130,130,0,0,1-31.17,3.86h-23q-12.19,0-22.68-.15t-15.74-.47C87.66,342.73,87,341.71,87,339.65ZM129.62,178V305.7c2.27,0,4.32.06,6.18.16l5.71.31c2,.1,4.16.16,6.63.15A82.66,82.66,0,0,0,175.6,302a56.09,56.09,0,0,0,21.14-13,58.22,58.22,0,0,0,13.58-21.29,80.64,80.64,0,0,0,4.78-28.7,72.32,72.32,0,0,0-4.63-27,51,51,0,0,0-13.42-19.44,54.92,54.92,0,0,0-21-11.57,91.36,91.36,0,0,0-26.7-3.71c-4.11,0-7.56.06-10.33.16s-5.92.26-9.42.46Z"/><path class="cls-2" d="M278.4,340V225.16q0-5.24-.16-11.72t-.46-12.34c-.21-3.91-.41-7-.62-9.26a1.85,1.85,0,0,1,.31-1.85,2.52,2.52,0,0,1,1.85-.62h32.1a6.67,6.67,0,0,1,3.08.62,2.92,2.92,0,0,1,1.55,2.16l1.38,4.16a25.26,25.26,0,0,1,1.08,5.71,61.94,61.94,0,0,1,20.37-11.88A70.11,70.11,0,0,1,362,186.28a58.92,58.92,0,0,1,18.06,2.93,45.67,45.67,0,0,1,29.16,28.39q4.62,11.9,4.63,30.71V340c0,1.85-.83,2.77-2.47,2.77H374.06a2.73,2.73,0,0,1-3.09-2.31,3.3,3.3,0,0,1,0-.77V252a38.55,38.55,0,0,0-2.77-15.74,22.11,22.11,0,0,0-7.87-9.56,23.31,23.31,0,0,0-13.12-3.4,38.25,38.25,0,0,0-14.5,2.63,36.42,36.42,0,0,0-11.42,7.25V340c0,1.85-.82,2.77-2.47,2.77H281.18a2.45,2.45,0,0,1-2.78-2.08A2.66,2.66,0,0,1,278.4,340Z"/></g></g></g></svg>