<svg id="icon" xmlns="http://www.w3.org/2000/svg" viewBox="0 0 500 500"><defs><style>.cls-1{fill:#470137;}.cls-2{fill:#ff61f6;}</style></defs><g id="Layer_2" data-name="Layer 2"><g id="Surfaces"><g id="UI_UX_Surface" data-name="UI UX Surface"><g id="Outline_no_shadow" data-name="Outline no shadow"><path class="cls-1" d="M101.46,25.75H398.54A81.39,81.39,0,0,1,480,107.21V392.79a81.39,81.39,0,0,1-81.46,81.46H101.46A81.39,81.39,0,0,1,20,392.79V107.21A81.39,81.39,0,0,1,101.46,25.75Z"/></g></g></g><g id="Outlined_Mnemonics_Logos" data-name="Outlined Mnemonics Logos"><g id="Dw"><path class="cls-2" d="M63.7,339.7V143.43a2.31,2.31,0,0,1,1.92-2.49h.19c2.87-.19,7.28-.38,12.84-.38,5.75-.19,12.27-.19,19.93-.38s15.72-.2,24.35-.2c23.38,0,42.93,4.22,58.26,12.65a84.07,84.07,0,0,1,34.69,34.7c7.67,14.75,11.5,31.62,11.5,50.79a118.48,118.48,0,0,1-5.94,39.29A93.33,93.33,0,0,1,205,306.92a100.14,100.14,0,0,1-23.58,20.51,105.25,105.25,0,0,1-28.17,12.08,117.76,117.76,0,0,1-29.52,3.83H102c-7.66,0-15,0-21.46-.19-6.71-.19-11.7-.19-14.95-.38C64.28,342.77,63.7,341.62,63.7,339.7Zm40.44-161.77V305.78c2.11,0,4,0,5.94.19,1.73.19,3.65.19,5.37.38,1.92.19,4,.19,6.32.19a71.67,71.67,0,0,0,26.07-4.41,51.41,51.41,0,0,0,20.13-13,59.3,59.3,0,0,0,12.84-21.27,91.4,91.4,0,0,0,4.6-28.75,76.17,76.17,0,0,0-4.41-27A50,50,0,0,0,148.22,181a80.92,80.92,0,0,0-25.3-3.64c-3.83,0-7.09,0-9.77.19-2.68,0-5.75.19-9,.38Z"/><path class="cls-2" d="M399.12,342.77H363.28A2.65,2.65,0,0,1,361,342a6.37,6.37,0,0,1-1.15-2.3c-3.65-15.33-6.71-29.13-9.21-40.82C348.13,287,346,277,344.49,268.78s-2.87-15.14-4-20.89c-1-5.75-1.92-10.54-2.5-14.56h-.19c-1.91,8.43-3.64,16.67-5.36,24.53-1.54,7.86-3.45,15.91-5.37,24s-4,16.86-6.52,26.45c-2.3,9.58-5,20.12-7.86,31.43-.38,2.11-1.34,3.07-3.06,3.07H273.77a4.27,4.27,0,0,1-2.69-.58,7.83,7.83,0,0,1-1.34-2.11L232.37,191.92c-.58-1.72.19-2.49,2.3-2.49h36.22c1.73,0,2.68.58,2.88,1.92,3.83,16.87,7.09,31.43,9.58,43.7s4.6,22.62,5.94,31.24S292,282,292.93,287.38s1.73,10,2.3,13.41h.58c.38-3.07.76-5.94,1.34-9q1.16-5.46,2.87-14.37c1.15-5.94,2.5-12.84,4.22-20.89s3.64-17.25,5.94-28c2.11-10.54,5.18-22.61,8.82-36.22a6.09,6.09,0,0,1,.77-2.49c.19-.39,1-.58,2.1-.58h37.57c1.15,0,1.73.77,1.92,2.11,3.26,14,5.94,26.26,8.24,36.8q3.16,15.81,5.75,28.17c1.53,8.05,2.87,15.15,3.64,20.9.77,5.94,1.73,10.73,2.49,14.75a84.13,84.13,0,0,1,1.34,9.78h.58c1-3.83,1.72-8.43,2.49-13.61s1.73-10.92,3.07-17.44c1.15-6.52,2.49-13.61,4-21.47,1.35-7.86,3.26-16.48,5.37-26.26,2.11-9.58,4.41-20.12,7.09-31.43.39-1.72,1.15-2.49,2.49-2.49h33.55c1.72,0,2.3,1,1.91,2.68L402,339.51a4.57,4.57,0,0,1-1.15,2.11C400.84,342.58,400.08,343,399.12,342.77Z"/></g></g></g></svg>