<svg id="icon" xmlns="http://www.w3.org/2000/svg" viewBox="0 0 500 500"><defs><style>.cls-1{fill:#300;}.cls-2{fill:#ff9a00;}</style></defs><g id="Layer_2" data-name="Layer 2"><g id="Surfaces"><g id="Drawing_Surface" data-name="Drawing Surface"><g id="Outline_no_shadow" data-name="Outline no shadow"><path class="cls-1" d="M101.46,25.75H398.54A81.39,81.39,0,0,1,480,107.21V392.79a81.39,81.39,0,0,1-81.46,81.46H101.46A81.39,81.39,0,0,1,20,392.79V107.21A81.39,81.39,0,0,1,101.46,25.75Z"/></g></g></g><g id="Outlined_Mnemonics_Logos" data-name="Outlined Mnemonics Logos"><g id="Ai"><path class="cls-2" d="M242.91,294.85h-71.3l-14.57,45a3.34,3.34,0,0,1-3.64,2.68h-36c-2.11,0-2.69-1.15-2.11-3.45L177,161.45c.57-1.92,1.14-4,1.91-6.33A66.59,66.59,0,0,0,180,142.67a1.9,1.9,0,0,1,1.54-2.11h49.64c1.53,0,2.3.57,2.49,1.53l70,197.42c.57,2.11,0,3.06-1.92,3.06H261.69a2.89,2.89,0,0,1-3.07-2.1Zm-60.18-38.91h48.68c-1.15-4-2.68-8.82-4.41-13.8-1.73-5.17-3.45-10.73-5.17-16.48-1.92-5.94-3.65-11.69-5.56-17.63s-3.65-11.5-5.18-17.06c-1.53-5.37-2.87-10.35-4.21-14.95h-.39A234.79,234.79,0,0,1,200,200.74c-2.88,9.2-5.75,18.79-8.82,28.37-2.68,9.77-5.56,18.78-8.43,26.83Z"/><path class="cls-2" d="M345.45,173.33a23.72,23.72,0,0,1-17.06-6.71A24.83,24.83,0,0,1,321.88,149a22.54,22.54,0,0,1,6.9-17.06,24.56,24.56,0,0,1,17.05-6.7c7.48,0,13.23,2.3,17.45,6.7A24.24,24.24,0,0,1,369.6,149a24.25,24.25,0,0,1-6.71,17.63A22.47,22.47,0,0,1,345.45,173.33ZM324,339.7V192.12c0-1.92.77-2.69,2.5-2.69h37.95c1.72,0,2.49,1,2.49,2.69V339.7c0,2.11-.77,3.07-2.49,3.07H326.86C324.94,342.77,324,341.62,324,339.7Z"/></g></g></g></svg>