<svg id="icon" xmlns="http://www.w3.org/2000/svg" viewBox="0 0 500 500"><defs><style>.cls-1{fill:#49021f;}.cls-2{fill:#f36;}</style></defs><path class="cls-1" d="M101.46,25.75H398.54A81.39,81.39,0,0,1,480,107.21V392.79a81.39,81.39,0,0,1-81.46,81.46H101.46A81.39,81.39,0,0,1,20,392.79V107.21A81.39,81.39,0,0,1,101.46,25.75Z"/><g id="Outlined_Mnemonics_Logos" data-name="Outlined Mnemonics Logos"><g id="Id"><path class="cls-2" d="M187.13,143.05V339.7c0,2.11-1,3.07-2.68,3.07H146.88c-1.72,0-2.49-1-2.49-3.07V143.05c0-1.73,1-2.49,2.68-2.49h37.38a2.16,2.16,0,0,1,2.49,1.92A.7.7,0,0,1,187.13,143.05Z"/><path class="cls-2" d="M297.53,345.83a95.16,95.16,0,0,1-41.2-8.62,66.82,66.82,0,0,1-28.95-26.07c-7.09-11.69-10.54-26.26-10.54-43.7A78.76,78.76,0,0,1,227.38,227a79.65,79.65,0,0,1,30.48-29.71c13.42-7.47,29.52-11.12,48.49-11.12a32.91,32.91,0,0,1,4,.2c1.72.19,3.64.19,5.94.38V126.18c0-1.34.57-2.1,1.91-2.1h38.91a1.71,1.71,0,0,1,1.92,1.34V308.27c0,3.45.19,7.28.38,11.5.39,4,.58,7.85.77,11.11a3.12,3.12,0,0,1-1.92,3.07,146.31,146.31,0,0,1-31.24,9.2A166.9,166.9,0,0,1,297.53,345.83Zm18.79-38.33V223.17a47.08,47.08,0,0,0-5.18-1c-2.11-.19-4.21-.38-6.32-.38a47.24,47.24,0,0,0-21.66,5A42.92,42.92,0,0,0,266.87,241c-4.22,6.13-6.33,14.38-6.33,24.34a53.5,53.5,0,0,0,3.26,19.75,37.52,37.52,0,0,0,8.62,13.6,33.12,33.12,0,0,0,13,7.67,50,50,0,0,0,15.91,2.49c2.87,0,5.55-.19,8.05-.38A16.3,16.3,0,0,0,316.32,307.5Z"/></g></g></svg>