<svg id="icon" xmlns="http://www.w3.org/2000/svg" viewBox="0 0 500 500"><defs><style>.cls-1{fill:#001e36;}.cls-2{fill:#31a8ff;}</style></defs><g id="Layer_2" data-name="Layer 2"><path class="cls-1" d="M101.45,25.74h297.1A81.39,81.39,0,0,1,480,107.19V392.81a81.39,81.39,0,0,1-81.45,81.45H101.45A81.39,81.39,0,0,1,20,392.81V107.19A81.39,81.39,0,0,1,101.45,25.74Z"/><g id="LrC"><path class="cls-2" d="M181.47,342.75H72c-2,0-2.69-1.07-2.69-3.41V143.43c0-2,.71-2.69,2.51-2.69h33.91c1.25,0,2,.72,2,2.15V303.82h79.66c1.79,0,2.33.9,2,2.69l-5,33.37a2.7,2.7,0,0,1-2.87,2.87Z"/><path class="cls-2" d="M208.74,189.36h30.32c1.79,0,2.87.9,3.58,3a16.39,16.39,0,0,1,1.26,4.49c.36,2,.54,3.94.72,5.92.18,2.15.18,4.48.18,6.81a67.65,67.65,0,0,1,18.48-16.5,46.26,46.26,0,0,1,25.65-6.82c1.8,0,2.51.9,2.51,2.69v37.32c0,1.61-.89,2.15-2.69,2.15a67.83,67.83,0,0,0-18.12,1.26,59.65,59.65,0,0,0-14.35,5.2,35.92,35.92,0,0,0-9.33,7.18v97.77c0,2-.72,2.69-2.33,2.69H211.25c-2,0-2.69-.89-2.69-3.05V233.32c0-4.67,0-9.33-.18-14.36,0-5-.18-10-.36-14.89-.18-4.3-.54-8.43-1.08-12.74a3.54,3.54,0,0,1,.36-1.79A2,2,0,0,1,208.74,189.36Z"/><path class="cls-2" d="M427.43,161a44.18,44.18,0,0,0-12.91-3.23A180.56,180.56,0,0,0,395,156.71c-18.84,0-35.34,3.95-48.8,11.84a82.82,82.82,0,0,0-31.75,33.55c-7.54,14.17-11.13,31-11.13,49.87a120,120,0,0,0,4.31,33.73,89.56,89.56,0,0,0,12.2,26.2A77.12,77.12,0,0,0,363,342.39a104.86,104.86,0,0,0,28,3.77,145.13,145.13,0,0,0,19.74-1.25,66.51,66.51,0,0,0,15.61-3.77,5,5,0,0,0,2.87-5.2V307.41a3.47,3.47,0,0,0-.9-2.87,2.4,2.4,0,0,0-3.05.18A56.93,56.93,0,0,1,411.83,308c-5.57.54-11.13.72-16.69.72a60.94,60.94,0,0,1-29.42-8.26,39.47,39.47,0,0,1-12-11.12,62,62,0,0,1-8.43-16.51,72.54,72.54,0,0,1-3-22.42,71.83,71.83,0,0,1,6.27-30.68,48.55,48.55,0,0,1,17.95-20.09,52.66,52.66,0,0,1,28-7.36,86.42,86.42,0,0,1,17.94,1.62,43.27,43.27,0,0,1,13.82,4.66,3.05,3.05,0,0,0,2.51,0,3.42,3.42,0,0,0,1.08-2.87v-30A5.27,5.27,0,0,0,427.43,161Z"/></g></g></svg>