<svg id="icon" xmlns="http://www.w3.org/2000/svg" viewBox="0 0 500 500"><defs><style>.cls-1{fill:#001e36;}.cls-2{fill:#31a8ff;}</style></defs><g id="Layer_2" data-name="Layer 2"><path class="cls-1" d="M101.45,25.74h297.1A81.39,81.39,0,0,1,480,107.19V392.81a81.39,81.39,0,0,1-81.45,81.45H101.45A81.39,81.39,0,0,1,20,392.81V107.19A81.39,81.39,0,0,1,101.45,25.74Z"/><g id="Lr"><path class="cls-2" d="M261.48,342.75H140c-2.15,0-3.05-1.07-3.05-3.41V143.43a2.41,2.41,0,0,1,2.16-2.69h38.21a1.85,1.85,0,0,1,2.15,1.62V303.82h88.63c2,0,2.51.9,2.15,2.69l-5.56,33.37a3.57,3.57,0,0,1-1.08,2.34A4.84,4.84,0,0,1,261.48,342.75Z"/><path class="cls-2" d="M292.16,189.36h33.55a4.05,4.05,0,0,1,4,3,16.88,16.88,0,0,1,1.61,4.49c.36,2,.72,3.94.9,5.92.18,2.15.36,4.48.36,6.81A76,76,0,0,1,353,193.13a54.93,54.93,0,0,1,28.53-6.82,2.41,2.41,0,0,1,2.69,2.15v38.22c0,1.61-.9,2.15-3.05,2.15a80.68,80.68,0,0,0-36.24,6.46,31.86,31.86,0,0,0-10.41,7.17v97.78c0,2-.72,2.69-2.51,2.69H294.67a2.57,2.57,0,0,1-3.05-2.33V233.67c0-4.66,0-9.33-.18-14.35s-.18-10-.36-14.89c-.18-4.31-.53-8.43-1.07-12.74a1.85,1.85,0,0,1,1.25-2.15c.36-.36.54-.36.9-.18Z"/></g></g></svg>