<svg id="icon" xmlns="http://www.w3.org/2000/svg" viewBox="0 0 500 500"><defs><style>.cls-1{fill:#26c9ff;}.cls-2{fill:#001d26;}.cls-3{fill:none;}.cls-4{fill:#d9f5ff;}</style></defs><path class="cls-1" d="M104.33,25.75H397.24A83,83,0,0,1,480,108.51v283a83,83,0,0,1-82.76,82.76H102.76A83,83,0,0,1,20,391.49V110.08a84.45,84.45,0,0,1,84.33-84.33"/><path class="cls-2" d="M108.17,44.92H393.4a67.43,67.43,0,0,1,67.43,67.43v275.3a67.43,67.43,0,0,1-67.43,67.43H106.59a67.42,67.42,0,0,1-67.42-67.43V113.92a68.7,68.7,0,0,1,69-69"/><rect class="cls-3" x="20" y="25.75" width="460" height="448.5"/><path class="cls-1" d="M203.21,303.77l37.93,62.7L282.43,287s-24.33-14.29-39.61,9.94c-12.08,19.15-21.55,10.5-26.76,6.3C213.42,301.07,208.72,298.72,203.21,303.77Z"/><path class="cls-4" d="M207,281.13c1.07-2.94,3.33-5.28,5.49-7.56a340.89,340.89,0,0,1,74.51-59c.84-.49,1.79-1.15,1.8-2.12s-1-1.68-1.87-2.08c-4-1.72-8.48-1.27-12.75-.65a194.28,194.28,0,0,0-50.78,14.75c-8.15,3.63-16,9-24.63,11.15-3.16.76-6.82,1.13-9.33-.93-2.25-1.83-3-6.35-2.25-9.16a19.12,19.12,0,0,1,4.46-7.38c13-15,31.12-24.42,48.78-33.47l58.74-30.08c1-.53,2.26-1.55,1.76-2.6-.35-.72-1.29-.87-2.09-.91-33.06-1.9-65.73,8.44-95.65,22.65-4.73,2.25-9.87,4.66-15,3.58-6.39-1.34-10.74-9-8.22-15.07,2.27-5.43,8.42-8,14-9.88,34.48-12,70.82-22.31,107-17.71,4.84.62,9.8,1.56,13.84,4.3,8.71,5.91,7.2,17.78-.12,24.15-3.39,3-7.54,4.86-11.62,6.74L259.42,189.9c-22.22,10.21-45.22,19.71-62,37.53-1.31-.2,17-11,24.58-13.88,16.92-6.4,34.39-11.84,52.41-13.46,7.14-.64,14.5-.65,21.24,1.77,4.69,1.68,9.58,6.09,8,10.82a9.84,9.84,0,0,1-3.58,4.41c-3.92,3.07-8.49,5.18-12.92,7.46-29.21,15-53.34,36.7-79.17,57C207.08,282.32,206.81,281.6,207,281.13Z"/></svg>