<svg id="icon" xmlns="http://www.w3.org/2000/svg" viewBox="0 0 500 500"><defs><style>.cls-1{fill:#001d26;}.cls-1,.cls-2{fill-rule:evenodd;}.cls-2{fill:#00c8ff;}.cls-3{fill:#caf1fe;}</style></defs><path class="cls-1" d="M100.27,40.2C46.43,40.2,34,72.21,34,126L34.19,388c0,54,16.86,72,70.7,72H393.6c53.83,0,72-18,72-71.85V116.26c0-54-20.13-76.06-74-76.06Z"/><path class="cls-2" d="M20,108.23V392.16c0,45.4,34.87,82,80.27,82H397.81a82,82,0,0,0,82.19-82V107.84a82.3,82.3,0,0,0-82.38-82H100.27c-45.4,0-80.27,36.6-80.27,82Zm371.68-63c36.6,0,68.78,30.08,68.78,66.67V384.49c0,36.61-29.7,70.32-66.3,70.32H105.64c-36.6,0-66.29-31-66.29-67.64V115.7c0-36.41,29.69-70.51,66.1-70.51Z"/><path class="cls-2" d="M191.1,301.72a1,1,0,0,0,1.14,1.15h15.33a1,1,0,0,0,1.15-1.15v-41c2.68,0,4,.19,8.05.19,23.37,0,42.54-11.3,42.54-37.36,0-20.12-12.46-35.63-41-35.63-10.15,0-19.73.19-26.24.58-.75,0-.95.58-.95,1.14C191.1,189.64,191.1,301.72,191.1,301.72Zm17.81-97.31c1.92-.19,5.75-.39,10-.39,13.8,0,22.22,6.72,22.22,19.74,0,16.28-11.49,20.49-23.75,20.49-4,0-5.94,0-8.43-.19Zm110.73,32a1,1,0,0,0,1.53-1V221.26a2.48,2.48,0,0,0-.95-2.12c-3.46-1.53-10.15-2.87-19-2.87-18,0-28.35,11.12-28.35,24.34,0,11.88,6.13,19,20.69,26.06,10.34,5.36,12.83,8.62,12.83,12.46,0,4.6-3.45,8.05-11.49,8.05a41.44,41.44,0,0,1-21.66-6.13c-.76-.58-1.14-.19-1.14.76V297a1.9,1.9,0,0,0,.75,1.72c4.41,2.49,13,4.41,22,4.41,17.06,0,29.7-8.81,29.7-25.29,0-11.12-5.18-18.59-21.27-26.43-10.93-5.56-12.83-8.23-12.83-11.88,0-3.46,2.68-7.47,10.92-7.47C307.76,232,315.05,233.72,319.64,236.4Z"/><path class="cls-3" d="M249.9,392.73a26.24,26.24,0,0,1-18.39-7.48L114.65,268.4a25.8,25.8,0,0,1,0-36.6L231.51,114.92a25.8,25.8,0,0,1,36.6,0h0L385,231.8a25.8,25.8,0,0,1,0,36.6L268.11,385.27A25.55,25.55,0,0,1,249.9,392.73Zm0-279.71A20.13,20.13,0,0,0,235.54,119L118.67,235.83a20.23,20.23,0,0,0,0,28.55L235.54,381.25a20.23,20.23,0,0,0,28.55,0L381,264.38a20.23,20.23,0,0,0,0-28.55L264.09,119A19.38,19.38,0,0,0,249.9,113Z"/></svg>