<svg id="icon" xmlns="http://www.w3.org/2000/svg" viewBox="0 0 500 500"><defs><style>.cls-1{fill:#00d9ff;}.cls-2{fill:#001d25;}.cls-3{fill:none;}.cls-4{fill:#aef2fe;}.cls-5{fill:#00c7fe;}</style></defs><path class="cls-1" d="M104.33,25.75H397.24A83,83,0,0,1,480,108.51v283a83,83,0,0,1-82.76,82.76H102.76A83,83,0,0,1,20,391.49V110.08a84.45,84.45,0,0,1,84.33-84.33"/><path class="cls-2" d="M108.17,44.92H393.4a67.43,67.43,0,0,1,67.43,67.43v275.3a67.43,67.43,0,0,1-67.43,67.43H106.6a67.42,67.42,0,0,1-67.43-67.43V113.92a68.7,68.7,0,0,1,69-69"/><rect class="cls-3" x="20" y="25.75" width="460" height="448.5"/><path class="cls-4" d="M281.88,246.45h-26V218.78a5.39,5.39,0,1,0-10.78,0v27.67h-26a5.4,5.4,0,0,0,0,10.79h26v27a5.39,5.39,0,1,0,10.78,0v-27h26a5.4,5.4,0,0,0,0-10.79Z"/><path class="cls-4" d="M322.14,341.65l-4.45,4.4C319.2,344.63,320.69,343.16,322.14,341.65ZM149.44,180.09,177.89,152A121.9,121.9,0,0,0,149.44,180.09Zm142.64-20.7L140.4,307.49c.58,1.11,1.17,2.2,1.79,3.28L294.6,162Zm-62.74,80.78-81.11,80.19c.69,1,1.4,2,2.12,2.95l81.52-80.58Zm-18.69,43.19-51.29,50.71c.82.87,1.65,1.74,2.49,2.58l51.33-50.73ZM210.26,307l-38.77,38.32c.94.76,1.89,1.5,2.85,2.23l38.44-38Zm4.09,19.74-28.76,28.43c1.07.63,2.14,1.25,3.23,1.86l28.06-27.73Zm10.5,13.69-23.09,22.83c1.21.49,2.43,1,3.66,1.43l22-21.7ZM244,344.79,219.53,369c1.39.33,2.78.64,4.18.92l22.85-22.58Zm26.6-4.16L238.91,372c1.61.12,3.23.2,4.86.25l29.39-29.05Zm29.7-4.34L265.12,371.1q3.15-.45,6.19-1.07l31.55-31.18Z"/><path class="cls-4" d="M317.69,346.05l4.45-4.4a138.12,138.12,0,0,0,16.66-21.52l-40.58,40.11A97.52,97.52,0,0,0,317.69,346.05ZM280.11,146,133.28,291.16c.44,1.25.89,2.48,1.36,3.71l148-146.3Zm-11.57-13L128.24,271.71c.25,1.43.51,2.84.81,4.26l142-140.39Zm-20.83-3.17H247L126.51,249c0,.7,0,1.4,0,2.1,0,1,0,2,0,2.95L252.05,129.94C250.6,129.89,249.15,129.85,247.71,129.85Zm-26.06,2.82-92.05,91c-.48,2.09-.91,4.19-1.28,6.32L228,131.46Q224.78,132,221.65,132.67ZM177.89,152l-28.45,28.12A120.63,120.63,0,0,0,141,193.46l50.29-49.71A120,120,0,0,0,177.89,152Z"/><path class="cls-5" d="M250.58,357.53a105,105,0,1,1,105-105A105.09,105.09,0,0,1,250.58,357.53Zm0-191.95a87,87,0,1,0,87,87A87.09,87.09,0,0,0,250.58,165.58Z"/></svg>