<svg id="icon" xmlns="http://www.w3.org/2000/svg" viewBox="0 0 500 500"><defs><style>.cls-1{fill:#001e36;}.cls-2{fill:#31a8ff;}</style></defs><g id="Layer_2" data-name="Layer 2"><g id="Surfaces"><g id="Photo_Surface" data-name="Photo Surface"><g id="Outline_no_shadow" data-name="Outline no shadow"><path class="cls-1" d="M101.46,25.75H398.54A81.39,81.39,0,0,1,480,107.21V392.79a81.39,81.39,0,0,1-81.46,81.46H101.46A81.39,81.39,0,0,1,20,392.79V107.21A81.39,81.39,0,0,1,101.46,25.75Z"/></g></g></g><g id="Outlined_Mnemonics_Logos" data-name="Outlined Mnemonics Logos"><g id="Ps"><path class="cls-2" d="M123.5,340.28V143.05c0-1.34.57-2.11,1.92-2.11,3.26,0,6.32,0,10.73-.19,4.6-.19,9.39-.19,14.57-.38s10.73-.19,16.67-.39,11.69-.19,17.44-.19c15.72,0,28.75,1.92,39.49,5.94A68.48,68.48,0,0,1,250,161.45a61.1,61.1,0,0,1,14,21.85,73.24,73.24,0,0,1,4.41,24.92q0,24.72-11.5,40.82A65.63,65.63,0,0,1,226,272.42c-13,4.8-27.41,6.52-43.12,6.52-4.6,0-7.67,0-9.59-.19s-4.6-.19-8.24-.19v61.52a2.39,2.39,0,0,1-2.11,2.69H125.8C124.27,342.77,123.5,342,123.5,340.28Zm41.78-162.35v64.4c2.69.19,5.18.39,7.48.39h10.16a71.6,71.6,0,0,0,22-3.45,33,33,0,0,0,15.71-10.16c4-4.79,6-11.31,6-19.74a31.6,31.6,0,0,0-4.41-17.06,27.78,27.78,0,0,0-13.42-10.93,56.36,56.36,0,0,0-22.62-3.83c-5,0-9.39,0-13,.19a44.29,44.29,0,0,0-7.86.19Z"/><path class="cls-2" d="M388,230.64a68.31,68.31,0,0,0-18.4-6.52,101.22,101.22,0,0,0-21.47-2.49,38.92,38.92,0,0,0-11.5,1.34,9.85,9.85,0,0,0-5.94,3.84,10.13,10.13,0,0,0-1.53,5.17,8.54,8.54,0,0,0,1.91,5,21.81,21.81,0,0,0,6.52,5.17c4.41,2.3,9,4.41,13.61,6.33a138.84,138.84,0,0,1,29.52,14,44.56,44.56,0,0,1,15.14,15.91,41.46,41.46,0,0,1,4.41,19.74,44.64,44.64,0,0,1-7.48,25.49,48,48,0,0,1-21.47,17.06c-9.39,4-20.89,6.13-34.69,6.13a132.35,132.35,0,0,1-26.06-2.49A77.45,77.45,0,0,1,291,338.17a3.77,3.77,0,0,1-2.11-3.65V301.17a2.08,2.08,0,0,1,.76-1.72,1.48,1.48,0,0,1,1.73.19A81.7,81.7,0,0,0,315.17,309a89,89,0,0,0,22.61,2.88c7.29,0,12.46-1,15.91-2.68a8.91,8.91,0,0,0,5.18-8.05c0-2.69-1.54-5.18-4.6-7.67s-9.4-5.37-18.79-9a117.26,117.26,0,0,1-27.21-13.8,49.52,49.52,0,0,1-14.57-16.29,41.09,41.09,0,0,1-4.41-19.55,45,45,0,0,1,6.52-23.19A47.27,47.27,0,0,1,315.93,194c9-4.6,20.32-6.7,33.93-6.7a165,165,0,0,1,23.76,1.72,67.63,67.63,0,0,1,16.49,4.41,3.37,3.37,0,0,1,1.91,1.72,9.31,9.31,0,0,1,.39,2.3v31.25a2.37,2.37,0,0,1-1,1.91C389.72,231,388.77,231,388,230.64Z"/></g></g></g></svg>