<svg id="icon" xmlns="http://www.w3.org/2000/svg" viewBox="0 0 500 500"><defs><style>.cls-1{fill:#00d9ff;}.cls-2{fill:#061e26;}.cls-3{fill:#26c9ff;}.cls-4{fill:#fff;}</style></defs><path class="cls-1" d="M104.33,25.75H397.24A83,83,0,0,1,480,108.51v283a83,83,0,0,1-82.76,82.76H102.76A83,83,0,0,1,20,391.49V110.08a84.45,84.45,0,0,1,84.33-84.33"/><path class="cls-2" d="M108.17,44.92H393.4a67.43,67.43,0,0,1,67.43,67.43v275.3a67.43,67.43,0,0,1-67.43,67.43H106.59a67.42,67.42,0,0,1-67.42-67.43V113.92a68.7,68.7,0,0,1,69-69"/><path class="cls-3" d="M278.55,367.5h-.21a90.79,90.79,0,0,1-11.68-.75h0l.68-5.34h.05a87.54,87.54,0,0,0,11,.7l.19,0Zm11.72-.78-.7-5.35h0a85.87,85.87,0,0,0,10.95-2.18l.05,0,1.39,5.21h0a91.84,91.84,0,0,1-11.64,2.32Zm-35.2-2.23,0,0a87.92,87.92,0,0,1-11.21-3.78l0,0-.06-.08v0l2.11-5.1v.2a84.9,84.9,0,0,0,10.55,3.55l0,0Zm58.07-3.91-2.08-5,.05,0a86,86,0,0,0,10-5l0,0,2.71,4.67-.05,0a91.25,91.25,0,0,1-10.63,5.26Zm-80-5.1,0,0a92.64,92.64,0,0,1-9.88-6.58l0,0,3.28-4.29,0,0a88.19,88.19,0,0,0,9.29,6.19l0,0Zm100.44-6.75,0,0-3.26-4.23,0,0a87.15,87.15,0,0,0,8.39-7.36l0,0,3.79,3.82v0a90.9,90.9,0,0,1-8.91,7.83ZM214.36,341.1l0,0a90.72,90.72,0,0,1-7.85-8.89l0,0,0,0,4.23-3.26,0,0a87.35,87.35,0,0,0,7.38,8.36h.09l-.08.08Zm136.15-9-4.45-3.42,0,0a85.72,85.72,0,0,0,6.21-9.28v-.06l.07,0,4.61,2.7h0a90.55,90.55,0,0,1-6.57,9.84ZM199.9,322.39l-.11-.11h0a90.4,90.4,0,0,1-5.24-10.52v-.07l0,0,4.95-2.07v.06a85.66,85.66,0,0,0,5,10l0,0h0l.09.17-.16-.12Zm162.31-10.88,0,0-4.94-2.05v0a86.09,86.09,0,0,0,3.59-10.58v-.05h0l5.17,1.39v0a88.51,88.51,0,0,1-3.82,11.24v.07ZM190.75,300.56v0a90.87,90.87,0,0,1-2.35-11.64v0l5.34-.72v0a83.89,83.89,0,0,0,2.2,10.95v0l0,0Zm177.57-11.94-5.34-.69v-.09a85.5,85.5,0,0,0,.71-11.1v-.65l5.39,0v.69a91.64,91.64,0,0,1-.76,11.85ZM187.59,277.11v-.36a92,92,0,0,1,.72-11.52v-.05h0l5.3.68v0a87.07,87.07,0,0,0-.68,10.85v.35Zm175.31-12V265a86.09,86.09,0,0,0-2.24-10.93V254l0,0,5.15-1.41,0,0a92.07,92.07,0,0,1,2.38,11.62h0v0ZM195.79,255l-.06,0-5.17-1.35v-.09h0a90.65,90.65,0,0,1,3.76-11.22v-.05l.06,0,4.94,2v0A83.8,83.8,0,0,0,195.79,255v0Zm161.26-11.43,0,0a88.54,88.54,0,0,0-5-10l0,0,4.65-2.73,0,0A92.74,92.74,0,0,1,362,241.45l0,.05ZM204.2,234.39l-4.67-2.67,0-.09h0a91.28,91.28,0,0,1,6.54-9.84l0,0,0,0,4.25,3.24,0,0a84.79,84.79,0,0,0-6.17,9.31Zm141.57-10,0,0a87.7,87.7,0,0,0-7.41-8.35l0,0,3.79-3.83,0,0a93.18,93.18,0,0,1,7.88,8.87v0l0,0Zm-128.08-7.72-3.83-3.8,0,0a89.8,89.8,0,0,1,8.88-7.87l0,0,3.31,4.27,0,0a84.82,84.82,0,0,0-8.35,7.39Zm112.25-7.94,0,0a84.1,84.1,0,0,0-9.3-6.16l-.05,0,2.68-4.69,0,0a90.22,90.22,0,0,1,9.91,6.54l0,0,0,0ZM235.27,203l-2.72-4.66,0,0a89,89,0,0,1,10.61-5.3l0,0,2.09,5,0,0a83.49,83.49,0,0,0-10,5Zm75.34-5.35h-.13l0,0A83,83,0,0,0,300,194.15l0,0,1.36-5.21h0a90.41,90.41,0,0,1,11.28,3.76l0,0Zm-54.83-3.29-1.41-5.16v-.38l.08.32A91,91,0,0,1,266,186.82h.05l.73,5.35h-.05a84,84,0,0,0-10.93,2.23Zm33.29-2.34H289a86.14,86.14,0,0,0-10.68-.67l-.5,0,0-5.35h.05a88.14,88.14,0,0,1,11.84.7h0Z"/><path class="cls-4" d="M309.34,193.46l-.22-.62-.62-.2A90.37,90.37,0,0,0,198.62,316.91l.28.6.64.14a94.42,94.42,0,0,0,109.8-124.19Zm-65.24,5.31a86.75,86.75,0,0,1,13.77-5l52,52.87a91.25,91.25,0,0,1-4.63,14.25ZM304,263.6a90.11,90.11,0,0,1-6.41,11.7l-67.4-68.58a87.85,87.85,0,0,1,11.3-6.72Zm-43.13-70.53a87.35,87.35,0,0,1,16.53-2.14l34.83,35.44a91.63,91.63,0,0,1-1.75,17.17Zm51.3,29.39-31-31.58A87.59,87.59,0,0,1,307,195,91.33,91.33,0,0,1,312.21,222.46ZM228,208.31l68.08,69.28a92.75,92.75,0,0,1-8.88,11l-69.74-71A89.57,89.57,0,0,1,228,208.31Zm-35.25,70.24a86.75,86.75,0,0,1,.95-12.87L242,314.81a91.91,91.91,0,0,1-16.29,2.38l-32.78-33.35C192.83,282.08,192.77,280.32,192.77,278.55Zm1.5-16.16a87,87,0,0,1,4.13-14.75L258.72,309A90.39,90.39,0,0,1,245,314Zm5.22-17.49a86.91,86.91,0,0,1,6.4-12.44l67.16,68.34a92,92,0,0,1-11.76,7Zm7.89-14.76a87.17,87.17,0,0,1,8.25-10.57l69.71,70.93a92.93,92.93,0,0,1-10.08,8.7Zm-6.6,85A86.77,86.77,0,0,1,193.27,288l28.79,29.29-1.49,0A92.15,92.15,0,0,1,200.78,315.17Z"/><path class="cls-3" d="M286.49,193.73a89.85,89.85,0,0,1,28.87,4.75A96.5,96.5,0,1,0,205.55,323.74a90.2,90.2,0,0,1,80.94-130Z"/></svg>