<svg id="icon" xmlns="http://www.w3.org/2000/svg" viewBox="0 0 500 500"><defs><style>.cls-1{fill:#00005b;}.cls-2{fill:#99f;}</style></defs><g id="Layer_2" data-name="Layer 2"><g id="Surfaces"><g id="Video_Audio_Surface" data-name="Video Audio Surface"><g id="Outline_no_shadow" data-name="Outline no shadow"><path class="cls-1" d="M101.46,25.75H398.54A81.39,81.39,0,0,1,480,107.21V392.79a81.39,81.39,0,0,1-81.46,81.46H101.46A81.39,81.39,0,0,1,20,392.79V107.21A81.39,81.39,0,0,1,101.46,25.75Z"/></g></g></g><g id="Outlined_Mnemonics_Logos" data-name="Outlined Mnemonics Logos"><g id="Pr"><path class="cls-2" d="M129.25,340.28V143.05c0-1.34.57-2.11,1.92-2.11,3.26,0,6.32,0,10.73-.19,4.6-.19,9.39-.19,14.57-.38s10.73-.19,16.67-.39,11.69-.19,17.44-.19c15.72,0,28.75,1.92,39.49,5.94a68.48,68.48,0,0,1,25.68,15.72,61.1,61.1,0,0,1,14,21.85,73.24,73.24,0,0,1,4.41,24.92q0,24.72-11.5,40.82a65.63,65.63,0,0,1-30.86,23.38c-13,4.8-27.41,6.52-43.12,6.52-4.6,0-7.67,0-9.59-.19s-4.6-.19-8.24-.19v61.52a2.39,2.39,0,0,1-2.11,2.69H131.55C130,342.77,129.25,342,129.25,340.28ZM171,177.93v64.4c2.69.19,5.18.39,7.48.39h10.16a71.6,71.6,0,0,0,22-3.45,33,33,0,0,0,15.71-10.16c4-4.79,6-11.31,6-19.74A31.6,31.6,0,0,0,228,192.31a27.78,27.78,0,0,0-13.42-10.93,56.36,56.36,0,0,0-22.62-3.83c-5,0-9.39,0-13,.19a44.34,44.34,0,0,0-7.86.19Z"/><path class="cls-2" d="M301,189.05h33.55a4.31,4.31,0,0,1,4,3.07,19.07,19.07,0,0,1,1.15,4.79c.38,1.91.77,4,1,5.94.19,2.11.38,4.41.38,6.9a71.17,71.17,0,0,1,20.51-16.48,59.35,59.35,0,0,1,29.13-7.48,2.39,2.39,0,0,1,2.69,2.11V226c0,1.53-1,2.11-3.07,2.11a83.11,83.11,0,0,0-20.7,1.92,78.73,78.73,0,0,0-16.1,5.17,30.07,30.07,0,0,0-9.78,7.09v97.75c0,1.92-.76,2.69-2.49,2.69H303.47a2.65,2.65,0,0,1-3.06-2.3v-107c0-4.6,0-9.4-.19-14.38s-.2-10-.39-14.95c0-4.41-.38-8.62-.76-13a1.76,1.76,0,0,1,1.34-2.11c0-.19.38-.19.57,0Z"/></g></g></g></svg>