<svg id="icon" xmlns="http://www.w3.org/2000/svg" viewBox="0 0 500 500"><defs><style>.cls-1{fill:#370000;}.cls-2{fill:#fa0f00;fill-rule:evenodd;}.cls-3{fill:#fabfbc;}</style></defs><rect class="cls-1" x="20" y="25.75" width="460" height="448.5" rx="81.46"/><path class="cls-2" d="M340,299.77c-.06,2.33.42,7.39.42,8.53,0,18.78-5.68,29.19-22.93,31.78v22.37c13.42-.43,22.87-3.51,30.46-8.61a36.59,36.59,0,0,0,15.43-21.2c2.37-8.6,3.52-19.28,3.52-34.92L366.46,251l-48.95,0V299.8Zm-60,0c0,2.3-.08,7-.06,8.14.07,19.22-4.59,29.8-21.84,32.38v22.38c15.34-.43,23.18-3.3,31.17-8.82a37.31,37.31,0,0,0,15.55-21.2c2.39-8.6,1.62-19.15,1.62-34.78L306.25,251l-48.47.18.05,48.6ZM160.42,202.22c-.13-2.3.34-6.81.34-7.95,0-18.79,5.31-29.92,22.56-32.5V139.41c-15.33.43-22.72,3.52-29.93,8.72-7.89,5.68-13.58,12.58-15.94,21.18a140.11,140.11,0,0,0-4,36.37v45.26h48.84l.09-48.76Zm82.61.47,0,49.16H194.47l-.07-45.36c0-15.63.1-28.34,2.49-37a36,36,0,0,1,14.64-21.29c8-5.53,16.46-8.63,31-9.06l.11,22.34c-17.21,2.58-22,14-22,32.8,0,1.15,0,5.75,0,8.05Z"/><path class="cls-3" d="M233.26,302.81a55.34,55.34,0,0,1-33.38-28.32c-.29-.59-.57-1.19-.82-1.79L191,274c.26.6.48,1.2.74,1.8a63.07,63.07,0,0,0,40,34.83c.61.18,1.22.31,1.84.47l1.46-7.8C234.48,303.15,233.85,303,233.26,302.81Zm-4.81,25.68a81.94,81.94,0,0,1-55.82-49.58c-.22-.59-.4-1.21-.61-1.8l-7.94,1.29c.2.6.37,1.23.57,1.82A89.65,89.65,0,0,0,227,336.32c.62.17,1.24.28,1.85.42l1.46-7.82C229.68,328.78,229.05,328.65,228.45,328.49Zm-4.74,25.35c-36.92-9-66.41-35.93-77.7-70.59-.21-.61-.36-1.23-.53-1.82l-8,1.29.54,1.82c11.88,38,43.93,67.55,84.18,77.14l1.85.43,1.47-7.87c-.62-.15-1.24-.26-1.85-.4Zm85.34-126.46a63.14,63.14,0,0,0-40.18-34.33c-.6-.17-1.22-.31-1.84-.47l-1.45,7.82c.62.16,1.24.31,1.84.49A55.45,55.45,0,0,1,301,228.75c.29.59.57,1.18.85,1.77l8-1.34C309.57,228.58,309.33,228,309.05,227.38Zm27.14-4.54a89.73,89.73,0,0,0-62.56-55.47c-.6-.15-1.22-.27-1.84-.4l-1.45,7.82c.61.14,1.23.26,1.85.43a81.94,81.94,0,0,1,56,48.95c.24.59.41,1.21.63,1.81l7.94-1.34C336.56,224,336.4,223.43,336.19,222.84Zm26.58-4.47c-12.16-37.72-44.25-67-84.42-76.34l-1.84-.43-1.46,7.87c.6.15,1.22.25,1.84.4,36.85,8.77,66.39,35.43,77.95,69.83.2.59.35,1.21.54,1.82l7.93-1.34c-.17-.6-.35-1.21-.54-1.8Z"/></svg>