<svg id="icon" xmlns="http://www.w3.org/2000/svg" viewBox="0 0 500 500"><defs><style>.cls-1{fill:#470137;}.cls-2{fill:#ff61f6;}</style></defs><g id="Layer_2" data-name="Layer 2"><g id="Surfaces"><g id="UI_UX_Surface" data-name="UI UX Surface"><g id="Outline_no_shadow" data-name="Outline no shadow"><path class="cls-1" d="M101.46,25.75H398.54A81.39,81.39,0,0,1,480,107.21V392.79a81.39,81.39,0,0,1-81.46,81.46H101.46A81.39,81.39,0,0,1,20,392.79V107.21A81.39,81.39,0,0,1,101.46,25.75Z"/></g></g></g><g id="Outlined_Mnemonics_Logos" data-name="Outlined Mnemonics Logos"><g id="Xd"><path class="cls-2" d="M261.88,143.62l-57.5,94.88,61.34,100.62a3.33,3.33,0,0,1,.38,2.3c-.19.77-1,.2-2.11.39H220.1c-3.07,0-5.18-.19-6.52-2.11-4-8.05-8.24-15.91-12.26-24-4-7.86-8.44-15.91-13-24.15s-9.2-16.48-13.8-24.92h-.38c-4,8.25-8.43,16.49-12.84,24.73s-8.82,16.48-13,24.53c-4.4,8.05-8.81,16.29-13.22,24.15-.77,1.92-2.3,2.11-4.41,2.11H88.43c-.77,0-1.35.38-1.35-.57a2.64,2.64,0,0,1,.39-2.11l59.61-97.75L89,143.43c-.57-.76-.77-1.53-.38-1.91a2.2,2.2,0,0,1,1.91-.77H134a11.48,11.48,0,0,1,2.69.38,5.48,5.48,0,0,1,1.91,1.73c3.64,8.24,7.86,16.48,12.27,24.72,4.6,8.25,9,16.3,13.8,24.34,4.6,8.05,8.81,16.1,12.84,24.35h.38c4-8.44,8.24-16.68,12.46-24.73s8.63-16.1,13-24.15,8.63-16.29,12.85-24.15a3.25,3.25,0,0,1,1.15-1.92,3.67,3.67,0,0,1,2.49-.38h40.44a1.76,1.76,0,0,1,2.11,1.34c.19.2-.19,1-.58,1.34Z"/><path class="cls-2" d="M350.43,345.83a95.23,95.23,0,0,1-41.21-8.62,66.85,66.85,0,0,1-28.94-26.07c-7.09-11.69-10.54-26.26-10.54-43.7A78.76,78.76,0,0,1,280.28,227a79.65,79.65,0,0,1,30.48-29.71c13.41-7.47,29.51-11.12,48.49-11.12a32.68,32.68,0,0,1,4,.2c1.73.19,3.65.19,6,.38V126.18c0-1.34.57-2.1,1.91-2.1H410a1.71,1.71,0,0,1,1.92,1.34V308.27c0,3.45.19,7.28.38,11.5.38,4,.58,7.85.77,11.11a3.12,3.12,0,0,1-1.92,3.07,146.48,146.48,0,0,1-31.24,9.2A168.63,168.63,0,0,1,350.43,345.83Zm18.79-38.33V223.17a47.08,47.08,0,0,0-5.18-1c-2.11-.19-4.21-.38-6.32-.38a47.24,47.24,0,0,0-21.66,5A42.92,42.92,0,0,0,319.77,241c-4.22,6.13-6.33,14.38-6.33,24.34a53.5,53.5,0,0,0,3.26,19.75,37.52,37.52,0,0,0,8.62,13.6,33.12,33.12,0,0,0,13,7.67,50,50,0,0,0,15.91,2.49c2.87,0,5.55-.19,8.05-.38A16.74,16.74,0,0,0,369.22,307.5Z"/></g></g></g></svg>